# Blender 5.0.1
# www.blender.org
mtllib EM-3.mtl
o TSS-EM-3_0c
v -0.003860 0.000500 0.002729
v -0.003860 0.000500 0.004729
v -0.003860 -0.000000 0.004729
v -0.003860 -0.000000 0.002729
v -0.006860 0.000500 0.002729
v -0.006860 -0.000000 0.002729
v -0.006860 0.000500 0.004729
v -0.006860 -0.000000 0.004729
v 0.001694 0.000500 -0.010500
v 0.001694 0.000500 -0.009500
v 0.001694 0.000000 -0.009500
v 0.001694 0.000000 -0.010500
v 0.000694 0.000500 -0.009500
v 0.000694 0.000000 -0.009500
v 0.000694 0.000500 -0.010500
v 0.000694 0.000000 -0.010500
v 0.008104 -0.000787 0.009540
v 0.008195 -0.000787 0.009761
v 0.008195 -0.000000 0.009761
v 0.008104 -0.000000 0.009540
v 0.008104 -0.000787 0.009982
v 0.008104 -0.000000 0.009982
v 0.007883 -0.000787 0.010074
v 0.007883 -0.000000 0.010074
v 0.007662 -0.000787 0.009982
v 0.007662 -0.000000 0.009982
v 0.007570 -0.000787 0.009761
v 0.007570 -0.000000 0.009761
v 0.008883 -0.000787 0.008449
v 0.009104 -0.000787 0.008540
v 0.009104 -0.000000 0.008540
v 0.008883 -0.000000 0.008449
v 0.011500 -0.000787 0.011000
v 0.011500 -0.000787 0.007300
v 0.011500 -0.000000 0.007300
v 0.011500 -0.000000 0.011000
v 0.011000 -0.000787 -0.011500
v -0.011000 -0.000787 -0.011500
v -0.011000 0.000000 -0.011500
v 0.011000 0.000000 -0.011500
v -0.011500 -0.000787 0.005366
v -0.010310 -0.000787 0.004760
v 0.011500 -0.000787 0.004760
v -0.011500 -0.000787 0.004760
v -0.010310 -0.000787 0.005366
v 0.011500 -0.000787 0.005366
v -0.010310 -0.000787 0.007300
v 0.010310 -0.000787 0.005366
v 0.010310 -0.000787 0.007300
v 0.011500 -0.000787 0.002826
v -0.011500 -0.000787 0.002220
v 0.011500 -0.000787 0.002220
v -0.011500 -0.000787 0.002826
v 0.010310 -0.000787 0.004760
v -0.010310 -0.000787 0.002826
v 0.010310 -0.000787 0.002826
v 0.010310 -0.000787 -0.002254
v -0.011500 -0.000787 -0.002860
v -0.010310 -0.000787 -0.002860
v 0.010310 -0.000787 -0.002860
v 0.011500 -0.000787 -0.002860
v -0.011500 -0.000787 -0.002254
v 0.011500 -0.000787 -0.002254
v 0.010310 -0.000787 -0.000320
v -0.010310 -0.000787 -0.002254
v -0.010310 -0.000787 -0.000320
v -0.011500 -0.000787 0.000286
v 0.011500 -0.000787 -0.000320
v -0.011500 -0.000787 -0.000320
v 0.011500 -0.000787 0.000286
v -0.010310 -0.000787 0.002220
v -0.010310 -0.000787 0.000286
v 0.010310 -0.000787 0.000286
v 0.010310 -0.000787 0.002220
v 0.010310 -0.000787 -0.004794
v -0.011500 -0.000787 -0.005400
v -0.010310 -0.000787 -0.005400
v 0.011500 -0.000787 -0.005400
v -0.010310 -0.000787 -0.004794
v 0.011500 -0.000787 -0.004794
v -0.011500 -0.000787 -0.004794
v -0.011250 -0.000787 -0.011433
v 0.011250 -0.000787 -0.011433
v -0.011433 -0.000787 -0.011250
v 0.011433 -0.000787 -0.011250
v -0.011500 -0.000787 -0.011000
v 0.011500 -0.000787 -0.011000
v 0.010310 -0.000787 -0.007334
v -0.011500 -0.000787 -0.007334
v 0.011500 -0.000787 -0.007334
v -0.010310 -0.000787 -0.007334
v 0.010310 -0.000787 -0.005400
v 0.007883 -0.000787 0.008449
v -0.011500 -0.000787 0.007300
v 0.008104 -0.000787 0.008540
v 0.008662 -0.000787 0.008540
v 0.007662 -0.000787 0.008540
v 0.007570 -0.000787 0.008761
v 0.008570 -0.000787 0.008761
v 0.009195 -0.000787 0.008761
v 0.008195 -0.000787 0.008761
v 0.008662 -0.000787 0.008982
v 0.008104 -0.000787 0.008982
v 0.009104 -0.000787 0.008982
v 0.007662 -0.000787 0.008982
v 0.007883 -0.000787 0.009074
v 0.008883 -0.000787 0.009074
v 0.008883 -0.000787 0.009449
v 0.007883 -0.000787 0.009449
v 0.008662 -0.000787 0.009540
v 0.007662 -0.000787 0.009540
v 0.009104 -0.000787 0.009540
v 0.009195 -0.000787 0.009761
v 0.008570 -0.000787 0.009761
v 0.008662 -0.000787 0.009982
v 0.009104 -0.000787 0.009982
v 0.008883 -0.000787 0.010074
v -0.011500 -0.000787 0.011000
v 0.011433 -0.000787 0.011250
v -0.011433 -0.000787 0.011250
v 0.011250 -0.000787 0.011433
v -0.011250 -0.000787 0.011433
v 0.011000 -0.000787 0.011500
v -0.011000 -0.000787 0.011500
v -0.011500 0.000000 -0.007334
v -0.011500 0.000000 -0.011000
v 0.010310 -0.000000 0.004760
v 0.011500 -0.000000 0.005366
v 0.011500 -0.000000 0.004760
v 0.010310 -0.000000 0.005366
v -0.010310 -0.000000 0.004760
v 0.010310 -0.000000 0.007300
v -0.010310 -0.000000 0.007300
v -0.011500 -0.000000 0.004760
v -0.010310 -0.000000 0.005366
v -0.011500 -0.000000 0.005366
v 0.011433 -0.000000 0.011250
v 0.011250 -0.000000 0.011433
v 0.011000 -0.000000 0.011500
v 0.009195 -0.000000 0.008761
v 0.009195 -0.000000 0.009761
v 0.009104 -0.000000 0.008982
v 0.009104 -0.000000 0.009540
v 0.009104 -0.000000 0.009982
v 0.008883 -0.000000 0.010074
v 0.008883 -0.000000 0.009074
v 0.008883 -0.000000 0.009449
v 0.008662 -0.000000 0.008540
v 0.008662 -0.000000 0.008982
v 0.008662 -0.000000 0.009540
v 0.008662 -0.000000 0.009982
v 0.008570 -0.000000 0.009761
v 0.008570 -0.000000 0.008761
v 0.008195 -0.000000 0.008761
v 0.008104 -0.000000 0.008540
v 0.008104 -0.000000 0.008982
v 0.007883 -0.000000 0.009449
v 0.007883 -0.000000 0.009074
v 0.007883 -0.000000 0.008449
v 0.007662 -0.000000 0.008540
v 0.007662 -0.000000 0.009540
v 0.007662 -0.000000 0.008982
v 0.007570 -0.000000 0.008761
v -0.011000 -0.000000 0.011500
v -0.011250 -0.000000 0.011433
v -0.011433 -0.000000 0.011250
v -0.011500 -0.000000 0.011000
v -0.011500 -0.000000 0.007300
v 0.010310 -0.000000 0.002826
v 0.011500 -0.000000 0.002826
v 0.011500 -0.000000 0.002220
v 0.010310 -0.000000 0.002220
v -0.010310 -0.000000 0.002220
v -0.010310 -0.000000 0.002826
v -0.011500 -0.000000 0.002220
v -0.011500 -0.000000 0.002826
v 0.010310 0.000000 -0.000320
v 0.011500 -0.000000 0.000286
v 0.011500 0.000000 -0.000320
v 0.010310 -0.000000 0.000286
v -0.010310 -0.000000 0.000286
v -0.010310 0.000000 -0.000320
v -0.011500 -0.000000 0.000286
v -0.011500 0.000000 -0.000320
v 0.010310 0.000000 -0.002254
v 0.011500 0.000000 -0.002254
v 0.011500 0.000000 -0.002860
v 0.010310 0.000000 -0.002860
v -0.010310 0.000000 -0.002860
v -0.011500 0.000000 -0.002860
v -0.010310 0.000000 -0.002254
v -0.011500 0.000000 -0.002254
v 0.011433 0.000000 -0.011250
v 0.011500 0.000000 -0.007334
v 0.011500 0.000000 -0.011000
v 0.011250 0.000000 -0.011433
v 0.010310 0.000000 -0.007334
v -0.010310 0.000000 -0.005400
v 0.010310 0.000000 -0.005400
v -0.010310 0.000000 -0.007334
v -0.011250 0.000000 -0.011433
v -0.011433 0.000000 -0.011250
v 0.011500 0.000000 -0.004794
v 0.011500 0.000000 -0.005400
v 0.010310 0.000000 -0.004794
v -0.011500 0.000000 -0.005400
v -0.010310 0.000000 -0.004794
v -0.011500 0.000000 -0.004794
v -0.003271 0.000159 0.008658
v -0.003271 0.000159 0.007469
v -0.003271 0.001059 0.007469
v -0.003271 0.001059 0.008658
v -0.006090 0.000159 0.008658
v -0.006090 0.000159 0.007469
v -0.006090 0.001059 0.008658
v -0.006090 0.001059 0.007469
v -0.011600 -0.000850 -0.004827
v -0.011600 -0.000850 -0.004447
v -0.011600 0.000050 -0.004447
v -0.011600 0.000050 -0.004827
v -0.010260 -0.000850 -0.004827
v -0.010260 0.000050 -0.004827
v -0.010260 -0.000850 -0.002795
v -0.010260 0.000050 -0.002795
v -0.011600 -0.000850 -0.002795
v -0.011600 0.000050 -0.002795
v -0.010968 0.000050 0.001257
v -0.010260 0.000050 0.002285
v -0.010260 0.000050 0.000253
v -0.011153 0.000050 0.001704
v -0.011153 0.000050 0.000811
v -0.011600 0.000050 0.002285
v -0.011600 0.000050 0.001889
v -0.011600 0.000050 0.000626
v -0.011600 0.000050 0.000253
v -0.011153 0.000050 -0.004262
v -0.011153 -0.000850 -0.004262
v -0.010968 0.000050 -0.003815
v -0.010968 -0.000850 -0.003815
v -0.011153 0.000050 -0.003369
v -0.011153 -0.000850 -0.003369
v -0.011600 0.000050 -0.003184
v -0.011600 -0.000850 -0.003184
v -0.011600 -0.000850 -0.007367
v -0.011600 -0.000850 -0.006983
v -0.011600 0.000050 -0.006983
v -0.011600 0.000050 -0.007367
v -0.010260 -0.000850 -0.007367
v -0.010260 0.000050 -0.007367
v -0.010260 -0.000850 -0.005335
v -0.010260 0.000050 -0.005335
v -0.011600 -0.000850 -0.005335
v -0.011600 0.000050 -0.005335
v -0.011600 -0.000850 -0.005720
v -0.011600 0.000050 -0.005720
v -0.011153 0.000050 -0.006798
v -0.011153 -0.000850 -0.006798
v -0.010968 0.000050 -0.006351
v -0.010968 -0.000850 -0.006351
v -0.011153 0.000050 -0.005905
v -0.011153 -0.000850 -0.005905
v -0.011600 -0.000850 -0.002287
v -0.011600 -0.000850 -0.001910
v -0.011600 0.000050 -0.001910
v -0.011600 0.000050 -0.002287
v -0.010260 -0.000850 -0.002287
v -0.010260 0.000050 -0.002287
v -0.010260 -0.000850 -0.000255
v -0.010260 0.000050 -0.000255
v -0.011600 -0.000850 -0.000255
v -0.011600 0.000050 -0.000255
v -0.011600 -0.000850 -0.000647
v -0.011600 0.000050 -0.000647
v -0.011153 0.000050 -0.001725
v -0.011153 -0.000850 -0.001725
v -0.010968 0.000050 -0.001279
v -0.010968 -0.000850 -0.001279
v -0.011153 0.000050 -0.000832
v -0.011153 -0.000850 -0.000832
v 0.008711 -0.000850 0.009588
v 0.008711 0.000050 0.009588
v 0.008637 -0.000850 0.009765
v 0.008887 0.000050 0.009515
v 0.008887 -0.000850 0.009515
v 0.009064 0.000050 0.009588
v 0.009064 -0.000850 0.009588
v 0.009137 0.000050 0.009765
v 0.009137 -0.000850 0.009765
v 0.009064 0.000050 0.009942
v 0.009064 -0.000850 0.009942
v 0.008887 0.000050 0.010015
v 0.008887 -0.000850 0.010015
v 0.008711 0.000050 0.009942
v 0.008711 -0.000850 0.009942
v 0.008637 0.000050 0.009765
v 0.008569 -0.000850 0.010083
v 0.008569 0.000050 0.010083
v 0.008437 -0.000850 0.009765
v 0.008887 0.000050 0.010215
v 0.008887 -0.000850 0.010215
v 0.009206 0.000050 0.010083
v 0.009206 -0.000850 0.010083
v 0.009337 0.000050 0.009765
v 0.009337 -0.000850 0.009765
v 0.009206 0.000050 0.009447
v 0.009206 -0.000850 0.009447
v 0.008887 0.000050 0.009315
v 0.008887 -0.000850 0.009315
v 0.008569 0.000050 0.009447
v 0.008569 -0.000850 0.009447
v 0.008437 0.000050 0.009765
v 0.009206 -0.000850 0.008447
v 0.008569 -0.000850 0.008447
v 0.008887 -0.000850 0.008315
v 0.008887 -0.000850 0.008515
v 0.008711 -0.000850 0.008588
v 0.009064 -0.000850 0.008588
v 0.009137 -0.000850 0.008765
v 0.008637 -0.000850 0.008765
v 0.009337 -0.000850 0.008765
v 0.008437 -0.000850 0.008765
v 0.009064 -0.000850 0.008942
v 0.008711 -0.000850 0.008942
v 0.008569 -0.000850 0.009083
v 0.008887 -0.000850 0.009015
v 0.009206 -0.000850 0.009083
v 0.008887 -0.000850 0.009215
v 0.009206 0.000050 0.009083
v 0.009337 0.000050 0.008765
v 0.009206 0.000050 0.008447
v 0.009137 0.000050 0.008765
v 0.009064 0.000050 0.008942
v 0.009064 0.000050 0.008588
v 0.008887 0.000050 0.009015
v 0.008887 0.000050 0.008315
v 0.008887 0.000050 0.009215
v 0.008887 0.000050 0.008515
v 0.008711 0.000050 0.008942
v 0.008711 0.000050 0.008588
v 0.008569 0.000050 0.009083
v 0.008637 0.000050 0.008765
v 0.008569 0.000050 0.008447
v 0.008437 0.000050 0.008765
v 0.007711 -0.000850 0.009588
v 0.007711 0.000050 0.009588
v 0.007637 -0.000850 0.009765
v 0.007887 0.000050 0.009515
v 0.007887 -0.000850 0.009515
v 0.008064 0.000050 0.009588
v 0.008064 -0.000850 0.009588
v 0.008137 0.000050 0.009765
v 0.008137 -0.000850 0.009765
v 0.008064 0.000050 0.009942
v 0.008064 -0.000850 0.009942
v 0.007887 0.000050 0.010015
v 0.007887 -0.000850 0.010015
v 0.007711 0.000050 0.009942
v 0.007711 -0.000850 0.009942
v 0.007637 0.000050 0.009765
v 0.007569 -0.000850 0.010083
v 0.007569 0.000050 0.010083
v 0.007437 -0.000850 0.009765
v 0.007887 0.000050 0.010215
v 0.007887 -0.000850 0.010215
v 0.008206 0.000050 0.010083
v 0.008206 -0.000850 0.010083
v 0.008337 0.000050 0.009765
v 0.008337 -0.000850 0.009765
v 0.008206 0.000050 0.009447
v 0.008206 -0.000850 0.009447
v 0.007887 0.000050 0.009315
v 0.007887 -0.000850 0.009315
v 0.007569 0.000050 0.009447
v 0.007569 -0.000850 0.009447
v 0.007437 0.000050 0.009765
v 0.007711 -0.000850 0.008588
v 0.007711 0.000050 0.008588
v 0.007637 -0.000850 0.008765
v 0.007887 0.000050 0.008515
v 0.007887 -0.000850 0.008515
v 0.008064 0.000050 0.008588
v 0.008064 -0.000850 0.008588
v 0.008137 0.000050 0.008765
v 0.008137 -0.000850 0.008765
v 0.008064 0.000050 0.008942
v 0.008064 -0.000850 0.008942
v 0.007887 0.000050 0.009015
v 0.007887 -0.000850 0.009015
v 0.007711 0.000050 0.008942
v 0.007711 -0.000850 0.008942
v 0.007637 0.000050 0.008765
v 0.007569 -0.000850 0.009083
v 0.007569 0.000050 0.009083
v 0.007437 -0.000850 0.008765
v 0.007887 0.000050 0.009215
v 0.007887 -0.000850 0.009215
v 0.008206 0.000050 0.009083
v 0.008206 -0.000850 0.009083
v 0.008337 0.000050 0.008765
v 0.008337 -0.000850 0.008765
v 0.008206 0.000050 0.008447
v 0.008206 -0.000850 0.008447
v 0.007887 0.000050 0.008315
v 0.007887 -0.000850 0.008315
v 0.007569 0.000050 0.008447
v 0.007569 -0.000850 0.008447
v 0.007437 0.000050 0.008765
v -0.011600 -0.000850 0.000626
v -0.011600 -0.000850 0.000253
v -0.010260 -0.000850 0.000253
v -0.011153 -0.000850 0.000811
v -0.010968 -0.000850 0.001257
v -0.011153 -0.000850 0.001704
v -0.011600 -0.000850 0.002285
v -0.011600 -0.000850 0.001889
v -0.010260 -0.000850 0.002285
v 0.011145 0.000050 -0.000817
v 0.011600 0.000050 -0.000255
v 0.011600 0.000050 -0.000629
v 0.011145 0.000050 -0.001726
v 0.011600 0.000050 -0.001914
v 0.011600 0.000050 -0.002287
v 0.010260 0.000050 -0.002287
v 0.010957 0.000050 -0.001271
v 0.010260 0.000050 -0.000255
v 0.011600 -0.000850 -0.001914
v 0.010260 -0.000850 -0.002287
v 0.011600 -0.000850 -0.002287
v 0.011145 -0.000850 -0.001726
v 0.010957 -0.000850 -0.001271
v 0.011145 -0.000850 -0.000817
v 0.010260 -0.000850 -0.000255
v 0.011600 -0.000850 -0.000629
v 0.011600 -0.000850 -0.000255
v -0.010968 0.000050 0.006330
v -0.010260 0.000050 0.007365
v -0.010260 0.000050 0.005333
v -0.011153 0.000050 0.006777
v -0.011153 0.000050 0.005883
v -0.011600 0.000050 0.007365
v -0.011600 0.000050 0.006962
v -0.011600 0.000050 0.005698
v -0.011600 0.000050 0.005333
v -0.011600 -0.000850 0.005698
v -0.011600 -0.000850 0.005333
v -0.010260 -0.000850 0.005333
v -0.011153 -0.000850 0.005883
v -0.010968 -0.000850 0.006330
v -0.011153 -0.000850 0.006777
v -0.011600 -0.000850 0.007365
v -0.011600 -0.000850 0.006962
v -0.010260 -0.000850 0.007365
v 0.011145 0.000050 -0.005897
v 0.011600 0.000050 -0.005335
v 0.011600 0.000050 -0.005709
v 0.011145 0.000050 -0.006806
v 0.011600 0.000050 -0.006994
v 0.011600 0.000050 -0.007367
v 0.010260 0.000050 -0.007367
v 0.010957 0.000050 -0.006351
v 0.010260 0.000050 -0.005335
v 0.011600 -0.000850 -0.006994
v 0.010260 -0.000850 -0.007367
v 0.011600 -0.000850 -0.007367
v 0.011145 -0.000850 -0.006806
v 0.010957 -0.000850 -0.006351
v 0.011145 -0.000850 -0.005897
v 0.010260 -0.000850 -0.005335
v 0.011600 -0.000850 -0.005709
v 0.011600 -0.000850 -0.005335
v -0.010968 0.000050 0.003794
v -0.010260 0.000050 0.004825
v -0.010260 0.000050 0.002793
v -0.011153 0.000050 0.004240
v -0.011153 0.000050 0.003347
v -0.011600 0.000050 0.004825
v -0.011600 0.000050 0.004425
v -0.011600 0.000050 0.003162
v -0.011600 0.000050 0.002793
v -0.011600 -0.000850 0.003162
v -0.011600 -0.000850 0.002793
v -0.010260 -0.000850 0.002793
v -0.011153 -0.000850 0.003347
v -0.010968 -0.000850 0.003794
v -0.011153 -0.000850 0.004240
v -0.011600 -0.000850 0.004825
v -0.011600 -0.000850 0.004425
v -0.010260 -0.000850 0.004825
v 0.011145 0.000050 -0.003357
v 0.011600 0.000050 -0.002795
v 0.011600 0.000050 -0.003169
v 0.011145 0.000050 -0.004266
v 0.011600 0.000050 -0.004454
v 0.011600 0.000050 -0.004827
v 0.010260 0.000050 -0.004827
v 0.010957 0.000050 -0.003811
v 0.010260 0.000050 -0.002795
v 0.011600 -0.000850 -0.004454
v 0.010260 -0.000850 -0.004827
v 0.011600 -0.000850 -0.004827
v 0.011145 -0.000850 -0.004266
v 0.010957 -0.000850 -0.003811
v 0.011145 -0.000850 -0.003357
v 0.010260 -0.000850 -0.002795
v 0.011600 -0.000850 -0.003169
v 0.011600 -0.000850 -0.002795
v 0.011145 0.000050 0.001723
v 0.011600 0.000050 0.002285
v 0.011600 0.000050 0.001911
v 0.011145 0.000050 0.000814
v 0.011600 0.000050 0.000626
v 0.011600 0.000050 0.000253
v 0.010260 0.000050 0.000253
v 0.010957 0.000050 0.001269
v 0.010260 0.000050 0.002285
v 0.011600 -0.000850 0.000626
v 0.010260 -0.000850 0.000253
v 0.011600 -0.000850 0.000253
v 0.011145 -0.000850 0.000814
v 0.010957 -0.000850 0.001269
v 0.011145 -0.000850 0.001723
v 0.010260 -0.000850 0.002285
v 0.011600 -0.000850 0.001911
v 0.011600 -0.000850 0.002285
v 0.011145 0.000050 0.006803
v 0.011600 0.000050 0.007365
v 0.011600 0.000050 0.006991
v 0.011145 0.000050 0.005894
v 0.011600 0.000050 0.005706
v 0.011600 0.000050 0.005333
v 0.010260 0.000050 0.005333
v 0.010957 0.000050 0.006349
v 0.010260 0.000050 0.007365
v 0.011600 -0.000850 0.005706
v 0.010260 -0.000850 0.005333
v 0.011600 -0.000850 0.005333
v 0.011145 -0.000850 0.005894
v 0.010957 -0.000850 0.006349
v 0.011145 -0.000850 0.006803
v 0.010260 -0.000850 0.007365
v 0.011600 -0.000850 0.006991
v 0.011600 -0.000850 0.007365
v 0.011145 0.000050 0.004263
v 0.011600 0.000050 0.004825
v 0.011600 0.000050 0.004451
v 0.011145 0.000050 0.003354
v 0.011600 0.000050 0.003166
v 0.011600 0.000050 0.002793
v 0.010260 0.000050 0.002793
v 0.010957 0.000050 0.003809
v 0.010260 0.000050 0.004825
v 0.011600 -0.000850 0.003166
v 0.010260 -0.000850 0.002793
v 0.011600 -0.000850 0.002793
v 0.011145 -0.000850 0.003354
v 0.010957 -0.000850 0.003809
v 0.011145 -0.000850 0.004263
v 0.010260 -0.000850 0.004825
v 0.011600 -0.000850 0.004451
v 0.011600 -0.000850 0.004825
v -0.010146 0.000000 -0.010856
v -0.010853 0.000000 -0.010856
v -0.010499 0.000000 -0.011002
v -0.009999 0.000000 -0.010502
v -0.010999 0.000000 -0.010502
v -0.010853 0.000000 -0.010149
v -0.010146 0.000000 -0.010149
v -0.010499 0.000000 -0.010002
v -0.010146 0.000100 -0.010856
v -0.010146 0.000100 -0.010149
v -0.009999 0.000100 -0.010502
v -0.010499 0.000100 -0.010002
v -0.010499 0.000100 -0.011002
v -0.010853 0.000100 -0.010149
v -0.010853 0.000100 -0.010856
v -0.010999 0.000100 -0.010502
v 0.010854 -0.000000 0.010144
v 0.010147 -0.000000 0.010144
v 0.010500 -0.000000 0.009998
v 0.011000 -0.000000 0.010498
v 0.010000 -0.000000 0.010498
v 0.010147 -0.000000 0.010851
v 0.010854 -0.000000 0.010851
v 0.010500 -0.000000 0.010998
v 0.010854 0.000100 0.010144
v 0.010854 0.000100 0.010851
v 0.011000 0.000100 0.010498
v 0.010500 0.000100 0.010998
v 0.010500 0.000100 0.009998
v 0.010147 0.000100 0.010851
v 0.010147 0.000100 0.010144
v 0.010000 0.000100 0.010498
v -0.009595 0.000032 0.008950
v -0.009595 0.000162 0.008950
v -0.009295 0.000162 0.008950
v -0.009295 0.000032 0.008950
v -0.009595 0.000162 0.009170
v -0.009295 0.000162 0.009170
v -0.009595 0.000032 0.008450
v -0.009295 0.000032 0.008450
v -0.009295 0.000032 0.008670
v -0.009595 0.000032 0.008670
v -0.009295 0.000162 0.008450
v -0.009295 0.000162 0.008670
v -0.009595 0.000162 0.008670
v -0.009595 0.000162 0.008450
v -0.008458 0.000582 0.010036
v -0.008458 0.000632 0.010036
v -0.008445 0.000582 0.010035
v -0.008471 0.000582 0.010040
v -0.008471 0.000632 0.010040
v -0.008483 0.000582 0.010046
v -0.008483 0.000632 0.010046
v -0.008494 0.000582 0.010053
v -0.008494 0.000632 0.010053
v -0.008504 0.000582 0.010063
v -0.008504 0.000632 0.010063
v -0.008511 0.000582 0.010074
v -0.008511 0.000632 0.010074
v -0.008516 0.000582 0.010087
v -0.008516 0.000632 0.010087
v -0.008519 0.000582 0.010100
v -0.008519 0.000632 0.010100
v -0.008520 0.000582 0.010113
v -0.008520 0.000632 0.010113
v -0.008518 0.000582 0.010127
v -0.008518 0.000632 0.010127
v -0.008514 0.000582 0.010139
v -0.008514 0.000632 0.010139
v -0.008508 0.000582 0.010151
v -0.008508 0.000632 0.010151
v -0.008499 0.000582 0.010162
v -0.008499 0.000632 0.010162
v -0.008489 0.000582 0.010171
v -0.008489 0.000632 0.010171
v -0.008478 0.000582 0.010178
v -0.008478 0.000632 0.010178
v -0.008465 0.000582 0.010182
v -0.008465 0.000632 0.010182
v -0.008452 0.000582 0.010185
v -0.008452 0.000632 0.010185
v -0.008438 0.000632 0.010185
v -0.008438 0.000582 0.010185
v -0.008425 0.000582 0.010182
v -0.008425 0.000632 0.010182
v -0.008412 0.000582 0.010178
v -0.008412 0.000632 0.010178
v -0.008401 0.000582 0.010171
v -0.008401 0.000632 0.010171
v -0.008391 0.000582 0.010162
v -0.008391 0.000632 0.010162
v -0.008382 0.000582 0.010151
v -0.008382 0.000632 0.010151
v -0.008376 0.000582 0.010139
v -0.008376 0.000632 0.010139
v -0.008372 0.000582 0.010127
v -0.008372 0.000632 0.010127
v -0.008370 0.000582 0.010113
v -0.008370 0.000632 0.010113
v -0.008371 0.000582 0.010100
v -0.008371 0.000632 0.010100
v -0.008374 0.000582 0.010087
v -0.008374 0.000632 0.010087
v -0.008379 0.000582 0.010074
v -0.008379 0.000632 0.010074
v -0.008386 0.000582 0.010063
v -0.008386 0.000632 0.010063
v -0.008396 0.000582 0.010053
v -0.008396 0.000632 0.010053
v -0.008407 0.000582 0.010046
v -0.008407 0.000632 0.010046
v -0.008419 0.000582 0.010040
v -0.008419 0.000632 0.010040
v -0.008432 0.000582 0.010036
v -0.008432 0.000632 0.010036
v -0.008445 0.000632 0.010035
v -0.009595 0.000032 0.009450
v -0.009295 0.000032 0.009450
v -0.009295 0.000032 0.009670
v -0.009595 0.000032 0.009670
v -0.009295 0.000162 0.009450
v -0.009295 0.000162 0.009670
v -0.009595 0.000162 0.009670
v -0.009595 0.000162 0.009450
v -0.009595 0.000032 0.009170
v -0.003950 0.000081 0.006822
v -0.003950 0.000210 0.006813
v -0.003500 0.000210 0.006813
v -0.003500 0.000081 0.006822
v -0.003950 0.000234 0.007060
v -0.003500 0.000234 0.007060
v -0.003950 0.000349 0.007081
v -0.003500 0.000349 0.007081
v -0.003950 0.000430 0.007122
v -0.003500 0.000430 0.007122
v -0.003950 0.000481 0.007222
v -0.003500 0.000481 0.007222
v -0.003950 0.000481 0.007459
v -0.003500 0.000481 0.007459
v -0.003950 0.000363 0.007459
v -0.003500 0.000363 0.007459
v -0.003950 0.000360 0.007245
v -0.003500 0.000360 0.007245
v -0.003950 0.000315 0.007206
v -0.003500 0.000315 0.007206
v -0.003950 0.000226 0.007190
v -0.003500 0.000226 0.007190
v -0.003950 0.000126 0.007122
v -0.003500 0.000126 0.007122
v -0.005850 0.000081 0.006822
v -0.005850 0.000210 0.006813
v -0.005400 0.000210 0.006813
v -0.005400 0.000081 0.006822
v -0.005850 0.000234 0.007060
v -0.005400 0.000234 0.007060
v -0.005850 0.000349 0.007081
v -0.005400 0.000349 0.007081
v -0.005850 0.000430 0.007122
v -0.005400 0.000430 0.007122
v -0.005850 0.000481 0.007222
v -0.005400 0.000481 0.007222
v -0.005850 0.000481 0.007459
v -0.005400 0.000481 0.007459
v -0.005850 0.000363 0.007459
v -0.005400 0.000363 0.007459
v -0.005850 0.000360 0.007245
v -0.005400 0.000360 0.007245
v -0.005850 0.000315 0.007206
v -0.005400 0.000315 0.007206
v -0.005850 0.000226 0.007190
v -0.005400 0.000226 0.007190
v -0.005850 0.000126 0.007122
v -0.005400 0.000126 0.007122
v -0.004460 0.000081 0.009322
v -0.004460 0.000210 0.009331
v -0.004910 0.000210 0.009331
v -0.004910 0.000081 0.009322
v -0.004460 0.000234 0.009084
v -0.004910 0.000234 0.009084
v -0.004460 0.000349 0.009063
v -0.004910 0.000349 0.009063
v -0.004460 0.000430 0.009022
v -0.004910 0.000430 0.009022
v -0.004460 0.000481 0.008922
v -0.004910 0.000481 0.008922
v -0.004460 0.000481 0.008685
v -0.004910 0.000481 0.008685
v -0.004460 0.000363 0.008685
v -0.004910 0.000363 0.008685
v -0.004460 0.000360 0.008899
v -0.004910 0.000360 0.008899
v -0.004460 0.000315 0.008938
v -0.004910 0.000315 0.008938
v -0.004460 0.000226 0.008954
v -0.004910 0.000226 0.008954
v -0.004460 0.000126 0.009022
v -0.004910 0.000126 0.009022
v -0.008295 0.000032 0.009670
v -0.008295 0.000032 0.009450
v -0.007995 0.000032 0.009450
v -0.007995 0.000032 0.009670
v -0.008295 0.000162 0.009450
v -0.007995 0.000162 0.009450
v -0.007995 0.000162 0.009670
v -0.008295 0.000162 0.009670
v -0.008295 0.000032 0.009170
v -0.008295 0.000032 0.008950
v -0.007995 0.000032 0.008950
v -0.007995 0.000032 0.009170
v -0.008295 0.000162 0.008950
v -0.007995 0.000162 0.008950
v -0.007995 0.000162 0.009170
v -0.008295 0.000162 0.009170
v -0.009595 0.000032 0.009950
v -0.009295 0.000032 0.009950
v -0.009295 0.000032 0.010170
v -0.009595 0.000032 0.010170
v -0.009295 0.000162 0.009950
v -0.009295 0.000162 0.010170
v -0.009595 0.000162 0.010170
v -0.009595 0.000162 0.009950
v -0.009295 0.000032 0.009170
v -0.008295 0.000162 0.010170
v -0.007995 0.000162 0.010170
v -0.007995 0.000162 0.009950
v -0.008295 0.000162 0.009950
v -0.008295 0.000032 0.010170
v -0.008295 0.000032 0.009950
v -0.007995 0.000032 0.010170
v -0.007995 0.000032 0.009950
v -0.008295 0.000162 0.008670
v -0.007995 0.000162 0.008670
v -0.007995 0.000162 0.008450
v -0.008295 0.000162 0.008450
v -0.008295 0.000032 0.008670
v -0.008295 0.000032 0.008450
v -0.007995 0.000032 0.008670
v -0.007995 0.000032 0.008450
v -0.008195 0.000082 0.008310
v -0.008199 0.000082 0.008291
v -0.008239 0.000586 0.008354
v -0.008243 0.000587 0.008335
v -0.008210 0.000082 0.008275
v -0.008254 0.000588 0.008319
v -0.008270 0.000587 0.008308
v -0.008226 0.000082 0.008264
v -0.008289 0.000586 0.008304
v -0.008245 0.000082 0.008260
v -0.008271 0.000628 0.010266
v -0.008289 0.000632 0.010266
v -0.008282 0.000631 0.010273
v -0.008268 0.000627 0.010273
v -0.008282 0.000627 0.010287
v -0.008270 0.000623 0.010287
v -0.008259 0.000616 0.010287
v -0.008257 0.000619 0.010273
v -0.008273 0.000616 0.010299
v -0.008284 0.000619 0.010299
v -0.008285 0.000608 0.010308
v -0.008278 0.000606 0.010308
v -0.008289 0.000619 0.010300
v -0.008289 0.000628 0.010284
v -0.008289 0.000604 0.010311
v -0.008287 0.000596 0.010314
v -0.008289 0.000586 0.010316
v -0.008283 0.000595 0.010314
v -0.008280 0.000592 0.010314
v -0.008271 0.000602 0.010308
v -0.008266 0.000596 0.010308
v -0.008257 0.000602 0.010299
v -0.008263 0.000589 0.010308
v -0.008253 0.000592 0.010299
v -0.008245 0.000595 0.010287
v -0.008251 0.000606 0.010287
v -0.008243 0.000587 0.010285
v -0.008254 0.000588 0.010301
v -0.008241 0.000596 0.010273
v -0.008239 0.000586 0.010266
v -0.008244 0.000604 0.010266
v -0.008247 0.000608 0.010273
v -0.008255 0.000619 0.010266
v -0.008264 0.000610 0.010299
v -0.008270 0.000587 0.010312
v -0.008244 0.000604 0.008354
v -0.008241 0.000596 0.008347
v -0.008247 0.000608 0.008347
v -0.008245 0.000595 0.008333
v -0.008251 0.000606 0.008333
v -0.008259 0.000616 0.008333
v -0.008257 0.000619 0.008347
v -0.008257 0.000602 0.008321
v -0.008253 0.000592 0.008321
v -0.008263 0.000589 0.008312
v -0.008266 0.000596 0.008312
v -0.008280 0.000592 0.008306
v -0.008271 0.000602 0.008312
v -0.008283 0.000595 0.008306
v -0.008278 0.000606 0.008312
v -0.008273 0.000616 0.008321
v -0.008264 0.000610 0.008321
v -0.008285 0.000608 0.008312
v -0.008287 0.000596 0.008306
v -0.008289 0.000604 0.008309
v -0.008289 0.000619 0.008320
v -0.008284 0.000619 0.008321
v -0.008282 0.000627 0.008333
v -0.008270 0.000623 0.008333
v -0.008268 0.000627 0.008347
v -0.008282 0.000631 0.008347
v -0.008271 0.000628 0.008354
v -0.008289 0.000632 0.008354
v -0.008289 0.000628 0.008336
v -0.008255 0.000619 0.008354
v -0.008202 0.000162 0.009950
v -0.008202 0.000162 0.010170
v -0.008295 0.000162 0.010170
v -0.008295 0.000162 0.009950
v -0.008195 0.000082 0.010170
v -0.008295 0.000082 0.010170
v -0.008195 0.000082 0.009950
v -0.008295 0.000082 0.009950
v -0.009388 0.000162 0.009170
v -0.009388 0.000162 0.008950
v -0.009295 0.000162 0.008950
v -0.009295 0.000162 0.009170
v -0.009395 0.000082 0.008950
v -0.009295 0.000082 0.008950
v -0.009395 0.000082 0.009170
v -0.009295 0.000082 0.009170
v -0.008202 0.000162 0.008450
v -0.008202 0.000162 0.008670
v -0.008295 0.000162 0.008670
v -0.008295 0.000162 0.008450
v -0.008195 0.000082 0.008670
v -0.008295 0.000082 0.008670
v -0.008195 0.000082 0.008450
v -0.008295 0.000082 0.008450
v -0.009388 0.000162 0.008670
v -0.009388 0.000162 0.008450
v -0.009295 0.000162 0.008450
v -0.009295 0.000162 0.008670
v -0.009395 0.000082 0.008450
v -0.009295 0.000082 0.008450
v -0.009395 0.000082 0.008670
v -0.009295 0.000082 0.008670
v -0.009388 0.000162 0.010170
v -0.009388 0.000162 0.009950
v -0.009295 0.000162 0.009950
v -0.009295 0.000162 0.010170
v -0.009395 0.000082 0.009950
v -0.009295 0.000082 0.009950
v -0.009395 0.000082 0.010170
v -0.009295 0.000082 0.010170
v -0.008202 0.000162 0.009450
v -0.008202 0.000162 0.009670
v -0.008295 0.000162 0.009670
v -0.008295 0.000162 0.009450
v -0.008195 0.000082 0.009670
v -0.008295 0.000082 0.009670
v -0.008195 0.000082 0.009450
v -0.008295 0.000082 0.009450
v -0.009388 0.000162 0.009670
v -0.009388 0.000162 0.009450
v -0.009295 0.000162 0.009450
v -0.009295 0.000162 0.009670
v -0.009395 0.000082 0.009450
v -0.009295 0.000082 0.009450
v -0.009395 0.000082 0.009670
v -0.009295 0.000082 0.009670
v -0.008202 0.000162 0.008950
v -0.008202 0.000162 0.009170
v -0.008295 0.000162 0.009170
v -0.008295 0.000162 0.008950
v -0.008195 0.000082 0.009170
v -0.008295 0.000082 0.009170
v -0.008195 0.000082 0.008950
v -0.008295 0.000082 0.008950
v -0.008380 0.000582 0.010147
v -0.008370 0.000582 0.010118
v -0.008374 0.000582 0.010087
v -0.008389 0.000582 0.010060
v -0.008401 0.000582 0.010171
v -0.008414 0.000582 0.010041
v -0.008429 0.000582 0.010183
v -0.008445 0.000582 0.010035
v -0.008461 0.000582 0.010183
v -0.008476 0.000582 0.010041
v -0.008489 0.000582 0.010171
v -0.008501 0.000582 0.010060
v -0.008510 0.000582 0.010147
v -0.008516 0.000582 0.010087
v -0.008520 0.000582 0.010118
v -0.009301 0.000586 0.008304
v -0.009301 0.000604 0.008309
v -0.009301 0.000619 0.008320
v -0.009301 0.000628 0.008336
v -0.009301 0.000632 0.008354
v -0.009301 0.000632 0.010266
v -0.009301 0.000628 0.010284
v -0.009301 0.000619 0.010300
v -0.009301 0.000604 0.010311
v -0.009301 0.000586 0.010316
v -0.008245 0.000082 0.010360
v -0.008226 0.000082 0.010356
v -0.008210 0.000082 0.010345
v -0.008199 0.000082 0.010329
v -0.008195 0.000082 0.010310
v -0.009336 0.000588 0.008319
v -0.009337 0.000592 0.008321
v -0.009327 0.000589 0.008312
v -0.009320 0.000587 0.008308
v -0.009324 0.000596 0.008312
v -0.009310 0.000592 0.008306
v -0.009319 0.000602 0.008312
v -0.009312 0.000606 0.008312
v -0.009326 0.000610 0.008321
v -0.009317 0.000616 0.008321
v -0.009306 0.000619 0.008321
v -0.009305 0.000608 0.008312
v -0.009320 0.000623 0.008333
v -0.009331 0.000616 0.008333
v -0.009333 0.000619 0.008347
v -0.009322 0.000627 0.008347
v -0.009339 0.000606 0.008333
v -0.009333 0.000602 0.008321
v -0.009345 0.000595 0.008333
v -0.009347 0.000587 0.008335
v -0.009349 0.000596 0.008347
v -0.009343 0.000608 0.008347
v -0.009346 0.000604 0.008354
v -0.009335 0.000619 0.008354
v -0.009319 0.000628 0.008354
v -0.009308 0.000631 0.008347
v -0.009308 0.000627 0.008333
v -0.009303 0.000596 0.008306
v -0.009307 0.000595 0.008306
v -0.009351 0.000586 0.008354
v -0.009308 0.000631 0.010273
v -0.009308 0.000627 0.010287
v -0.009322 0.000627 0.010273
v -0.009320 0.000623 0.010287
v -0.009317 0.000616 0.010299
v -0.009306 0.000619 0.010299
v -0.009331 0.000616 0.010287
v -0.009333 0.000619 0.010273
v -0.009343 0.000608 0.010273
v -0.009339 0.000606 0.010287
v -0.009335 0.000619 0.010266
v -0.009319 0.000628 0.010266
v -0.009346 0.000604 0.010266
v -0.009349 0.000596 0.010273
v -0.009351 0.000586 0.010266
v -0.009347 0.000587 0.010285
v -0.009345 0.000595 0.010287
v -0.009337 0.000592 0.010299
v -0.009336 0.000588 0.010301
v -0.009327 0.000589 0.010308
v -0.009324 0.000596 0.010308
v -0.009320 0.000587 0.010312
v -0.009310 0.000592 0.010314
v -0.009307 0.000595 0.010314
v -0.009303 0.000596 0.010314
v -0.009305 0.000608 0.010308
v -0.009312 0.000606 0.010308
v -0.009319 0.000602 0.010308
v -0.009326 0.000610 0.010299
v -0.009333 0.000602 0.010299
v -0.009345 0.000082 0.008260
v -0.009364 0.000082 0.008264
v -0.009380 0.000082 0.008275
v -0.009391 0.000082 0.008291
v -0.009395 0.000082 0.008310
v -0.009395 0.000082 0.010310
v -0.009391 0.000082 0.010329
v -0.009380 0.000082 0.010345
v -0.009364 0.000082 0.010356
v -0.009345 0.000082 0.010360
v -0.008370 0.000632 0.010118
v -0.008374 0.000632 0.010087
v -0.008380 0.000632 0.010147
v -0.008389 0.000632 0.010060
v -0.008401 0.000632 0.010171
v -0.008414 0.000632 0.010041
v -0.008429 0.000632 0.010183
v -0.008445 0.000632 0.010035
v -0.008461 0.000632 0.010183
v -0.008476 0.000632 0.010041
v -0.008489 0.000632 0.010171
v -0.008501 0.000632 0.010060
v -0.008516 0.000632 0.010087
v -0.008510 0.000632 0.010147
v -0.008520 0.000632 0.010118
v -0.004213 0.000000 -0.001785
v -0.004213 -0.000000 0.000715
v -0.007213 -0.000000 0.000715
v -0.007213 0.000000 -0.001785
v -0.007213 0.001000 0.000715
v -0.004213 0.001000 0.000715
v -0.004213 0.001000 -0.001785
v -0.007213 0.001000 -0.001785
v 0.006263 0.000000 -0.007060
v 0.006263 0.000000 -0.004060
v 0.003263 0.000000 -0.004060
v 0.003263 0.000000 -0.007060
v 0.003263 0.001000 -0.004060
v 0.006263 0.001000 -0.004060
v 0.006263 0.001000 -0.007060
v 0.003263 0.001000 -0.007060
v -0.006500 0.000000 -0.007500
v -0.009500 0.000000 -0.007500
v -0.009500 0.000000 -0.010500
v -0.006500 0.000000 -0.010500
v -0.009500 0.001000 -0.010500
v -0.009500 0.001000 -0.007500
v -0.006500 0.001000 -0.007500
v -0.006500 0.001000 -0.010500
v 0.006788 0.001000 -0.000035
v 0.006787 0.001000 0.004965
v 0.006787 -0.000000 0.004965
v 0.006788 0.000000 -0.000035
v 0.001787 0.001000 0.004965
v 0.001787 -0.000000 0.004965
v 0.001788 0.001000 -0.000035
v 0.001788 0.000000 -0.000035
v -0.000462 0.000850 -0.002035
v -0.000463 0.000850 -0.000035
v -0.000463 0.000000 -0.000035
v -0.000462 0.000000 -0.002035
v -0.002463 0.000850 -0.000035
v -0.002463 0.000000 -0.000035
v -0.002463 0.000850 -0.002035
v -0.002463 0.000000 -0.002035
v -0.003482 0.000850 -0.005685
v -0.003483 0.000850 -0.003685
v -0.003483 0.000000 -0.003685
v -0.003482 0.000000 -0.005685
v -0.005482 0.000850 -0.003685
v -0.005482 0.000000 -0.003685
v -0.005482 0.000850 -0.005685
v -0.005482 0.000000 -0.005685
v 0.006887 0.000350 0.007915
v 0.006088 0.000350 0.007915
v 0.006087 0.000350 0.009515
v 0.006887 0.000350 0.009515
v 0.006087 -0.000000 0.009515
v 0.006088 -0.000000 0.007915
v 0.006887 -0.000000 0.007915
v 0.006887 -0.000000 0.009515
v 0.010112 0.000350 -0.010099
v 0.010112 0.000350 -0.009299
v 0.010112 0.000000 -0.009299
v 0.010112 0.000000 -0.010099
v 0.008512 0.000350 -0.009299
v 0.008512 0.000000 -0.009299
v 0.008512 0.000350 -0.010099
v 0.008512 0.000000 -0.010099
v 0.005064 0.000350 -0.009500
v 0.005064 0.000350 -0.010300
v 0.003464 0.000350 -0.010300
v 0.003464 0.000350 -0.009500
v 0.003464 0.000000 -0.010300
v 0.005064 0.000000 -0.010300
v 0.005064 0.000000 -0.009500
v 0.003464 0.000000 -0.009500
v -0.000158 0.000350 -0.009749
v -0.000158 0.000350 -0.010549
v -0.001758 0.000350 -0.010549
v -0.001758 0.000350 -0.009749
v -0.001758 0.000000 -0.010549
v -0.000158 0.000000 -0.010549
v -0.000158 0.000000 -0.009749
v -0.001758 0.000000 -0.009749
v -0.000989 0.000350 -0.006828
v -0.001789 0.000350 -0.006828
v -0.001789 0.000350 -0.005228
v -0.000989 0.000350 -0.005228
v -0.001789 0.000000 -0.005228
v -0.001789 0.000000 -0.006828
v -0.000989 0.000000 -0.006828
v -0.000989 0.000000 -0.005228
v -0.008890 0.000350 -0.000047
v -0.009690 0.000350 -0.000047
v -0.009690 0.000350 0.001553
v -0.008890 0.000350 0.001553
v -0.009690 -0.000000 0.001553
v -0.009690 0.000000 -0.000047
v -0.008890 0.000000 -0.000047
v -0.008890 -0.000000 0.001553
v 0.001332 0.000350 0.004965
v 0.000532 0.000350 0.004965
v 0.000532 0.000350 0.006565
v 0.001332 0.000350 0.006565
v 0.000532 -0.000000 0.006565
v 0.000532 -0.000000 0.004965
v 0.001332 -0.000000 0.004965
v 0.001332 -0.000000 0.006565
v 0.008512 0.000350 0.005440
v 0.007713 0.000350 0.005440
v 0.007713 0.000350 0.007040
v 0.008512 0.000350 0.007040
v 0.007713 -0.000000 0.007040
v 0.007713 -0.000000 0.005440
v 0.008512 -0.000000 0.005440
v 0.008512 -0.000000 0.007040
v 0.009261 0.000500 -0.001581
v 0.009261 0.000500 -0.002381
v 0.007661 0.000500 -0.002381
v 0.007661 0.000500 -0.001581
v 0.007661 0.000000 -0.002381
v 0.009261 0.000000 -0.002381
v 0.009261 0.000000 -0.001581
v 0.007661 0.000000 -0.001581
v 0.009261 0.000500 -0.002909
v 0.009261 0.000500 -0.003709
v 0.007661 0.000500 -0.003709
v 0.007661 0.000500 -0.002909
v 0.007661 0.000000 -0.003709
v 0.009261 0.000000 -0.003709
v 0.009261 0.000000 -0.002909
v 0.007661 0.000000 -0.002909
v -0.000391 0.000500 0.009975
v -0.000391 0.000500 0.009175
v -0.001991 0.000500 0.009175
v -0.001991 0.000500 0.009975
v -0.001991 -0.000000 0.009175
v -0.000391 -0.000000 0.009175
v -0.000391 -0.000000 0.009975
v -0.001991 -0.000000 0.009975
v -0.000391 0.000500 0.008705
v -0.000391 0.000500 0.007905
v -0.001991 0.000500 0.007905
v -0.001991 0.000500 0.008705
v -0.001991 -0.000000 0.007905
v -0.000391 -0.000000 0.007905
v -0.000391 -0.000000 0.008705
v -0.001991 -0.000000 0.008705
v -0.000391 0.000500 0.007435
v -0.000391 0.000500 0.006635
v -0.001991 0.000500 0.006635
v -0.001991 0.000500 0.007435
v -0.001991 -0.000000 0.006635
v -0.000391 -0.000000 0.006635
v -0.000391 -0.000000 0.007435
v -0.001991 -0.000000 0.007435
v -0.000318 0.000500 0.004115
v -0.001118 0.000500 0.004115
v -0.001118 0.000500 0.005715
v -0.000318 0.000500 0.005715
v -0.001118 -0.000000 0.005715
v -0.001118 -0.000000 0.004115
v -0.000318 -0.000000 0.004115
v -0.000318 -0.000000 0.005715
v -0.002439 0.000500 0.002755
v -0.003239 0.000500 0.002755
v -0.003239 0.000500 0.004355
v -0.002439 0.000500 0.004356
v -0.003239 -0.000000 0.004355
v -0.003239 -0.000000 0.002755
v -0.002439 -0.000000 0.002755
v -0.002439 -0.000000 0.004356
v -0.007549 0.000500 0.002755
v -0.008349 0.000500 0.002755
v -0.008349 0.000500 0.004355
v -0.007549 0.000500 0.004355
v -0.008349 -0.000000 0.004355
v -0.008349 -0.000000 0.002755
v -0.007549 -0.000000 0.002755
v -0.007549 -0.000000 0.004355
v 0.005591 0.000500 0.007989
v 0.004791 0.000500 0.007989
v 0.004791 0.000500 0.009589
v 0.005591 0.000500 0.009589
v 0.004791 -0.000000 0.009589
v 0.004791 -0.000000 0.007989
v 0.005591 -0.000000 0.007989
v 0.005591 -0.000000 0.009589
v 0.009819 0.000500 0.004661
v 0.009019 0.000500 0.004661
v 0.009019 0.000500 0.006261
v 0.009819 0.000500 0.006261
v 0.009019 -0.000000 0.006261
v 0.009019 -0.000000 0.004661
v 0.009819 -0.000000 0.004661
v 0.009819 -0.000000 0.006261
v 0.009628 0.000500 -0.007106
v 0.008828 0.000500 -0.007106
v 0.008828 0.000500 -0.005506
v 0.009628 0.000500 -0.005506
v 0.008828 0.000000 -0.005506
v 0.008828 0.000000 -0.007106
v 0.009628 0.000000 -0.007106
v 0.009628 0.000000 -0.005506
v 0.008068 0.000500 -0.007109
v 0.007268 0.000500 -0.007109
v 0.007268 0.000500 -0.005509
v 0.008068 0.000500 -0.005509
v 0.007268 0.000000 -0.005509
v 0.007268 0.000000 -0.007109
v 0.008068 0.000000 -0.007109
v 0.008068 0.000000 -0.005509
v 0.000385 0.000500 -0.008643
v -0.000415 0.000500 -0.008643
v -0.000415 0.000500 -0.007043
v 0.000385 0.000500 -0.007043
v -0.000415 0.000000 -0.007043
v -0.000415 0.000000 -0.008643
v 0.000385 0.000000 -0.008643
v 0.000385 0.000000 -0.007043
v -0.003487 0.000500 -0.007560
v -0.002687 0.000500 -0.007560
v -0.002687 0.000500 -0.009160
v -0.003487 0.000500 -0.009160
v -0.002687 0.000000 -0.009160
v -0.002687 0.000000 -0.007560
v -0.003487 0.000000 -0.007560
v -0.003487 0.000000 -0.009160
v -0.006882 0.000500 -0.003735
v -0.006082 0.000500 -0.003735
v -0.006082 0.000500 -0.005335
v -0.006882 0.000500 -0.005335
v -0.006082 0.000000 -0.005335
v -0.006082 0.000000 -0.003735
v -0.006882 0.000000 -0.003735
v -0.006882 0.000000 -0.005335
v -0.008404 0.000500 -0.001928
v -0.007604 0.000500 -0.001928
v -0.007604 0.000500 -0.003528
v -0.008404 0.000500 -0.003528
v -0.007604 0.000000 -0.003528
v -0.007604 0.000000 -0.001928
v -0.008404 0.000000 -0.001928
v -0.008404 0.000000 -0.003528
v -0.009822 0.000500 -0.001801
v -0.009022 0.000500 -0.001801
v -0.009022 0.000500 -0.003401
v -0.009822 0.000500 -0.003401
v -0.009022 0.000000 -0.003401
v -0.009022 0.000000 -0.001801
v -0.009822 0.000000 -0.001801
v -0.009822 0.000000 -0.003401
vn 1.0000 -0.0000 -0.0000
vn -0.0000 -0.0000 -1.0000
vn -1.0000 -0.0000 -0.0000
vn -0.0000 -0.0000 1.0000
vn -0.0000 -1.0000 -0.0000
vn -0.0000 1.0000 -0.0000
vn -0.9239 -0.0000 0.3827
vn -0.9239 -0.0000 -0.3827
vn -0.3828 -0.0000 -0.9238
vn 0.3828 -0.0000 -0.9238
vn 0.9239 -0.0000 -0.3827
vn -0.3827 -0.0000 0.9239
vn 0.8660 -0.0000 -0.5000
vn 0.5000 -0.0000 -0.8660
vn 0.5000 -0.0000 0.8660
vn 0.8660 -0.0000 0.5000
vn 0.3827 -0.0000 0.9239
vn 0.9239 -0.0000 0.3827
vn 0.3827 -0.0000 -0.9239
vn -0.3827 -0.0000 -0.9239
vn -0.5000 -0.0000 -0.8660
vn -0.8660 -0.0000 -0.5000
vn -0.8660 -0.0000 0.5000
vn -0.5000 -0.0000 0.8660
vn -0.7071 -0.0000 0.7071
vn -0.7071 -0.0000 -0.7071
vn 0.7071 -0.0000 0.7071
vn -0.7071 -0.0000 -0.7072
vn 0.7071 -0.0000 -0.7071
vn 0.7071 -0.0000 -0.7072
vn -1.0000 -0.0000 0.0001
vn -0.0001 -0.0000 -1.0000
vn 1.0000 -0.0000 0.0001
vn -0.0001 -0.0000 1.0000
vn 0.7072 -0.0000 -0.7071
vn 0.7072 -0.0000 0.7071
vn -0.1787 -0.0000 -0.9839
vn -0.1788 -0.0000 -0.9839
vn -0.3514 -0.0000 -0.9362
vn -0.3513 -0.0000 -0.9363
vn -0.5129 -0.0000 -0.8585
vn -0.6580 -0.0000 -0.7530
vn -0.7819 -0.0000 -0.6234
vn -0.7818 -0.0000 -0.6235
vn -0.8806 -0.0000 -0.4738
vn -0.9510 -0.0000 -0.3091
vn -0.9910 -0.0000 -0.1340
vn -0.9990 -0.0000 0.0450
vn -0.9990 -0.0000 0.0447
vn -0.9749 -0.0000 0.2225
vn -0.9195 -0.0000 0.3932
vn -0.9195 -0.0000 0.3931
vn -0.8346 -0.0000 0.5509
vn -0.7228 -0.0000 0.6911
vn -0.7228 -0.0000 0.6910
vn -0.5878 -0.0000 0.8090
vn -0.4338 -0.0000 0.9010
vn -0.2660 -0.0000 0.9640
vn -0.0896 -0.0000 0.9960
vn 0.0896 -0.0000 0.9960
vn 0.2660 -0.0000 0.9640
vn 0.2659 -0.0000 0.9640
vn 0.4338 -0.0000 0.9010
vn 0.4339 -0.0000 0.9009
vn 0.5878 -0.0000 0.8090
vn 0.7229 -0.0000 0.6910
vn 0.7228 -0.0000 0.6911
vn 0.8346 -0.0000 0.5509
vn 0.9195 -0.0000 0.3931
vn 0.9749 -0.0000 0.2225
vn 0.9990 -0.0000 0.0450
vn 0.9910 -0.0000 -0.1340
vn 0.9510 -0.0000 -0.3091
vn 0.8807 -0.0000 -0.4737
vn 0.7819 -0.0000 -0.6235
vn 0.7819 -0.0000 -0.6234
vn 0.6579 -0.0000 -0.7531
vn 0.6580 -0.0000 -0.7531
vn 0.5129 -0.0000 -0.8585
vn 0.3510 -0.0000 -0.9364
vn 0.3511 -0.0000 -0.9363
vn 0.1786 -0.0000 -0.9839
vn 0.1787 -0.0000 -0.9839
vn -0.0000 -0.0660 -0.9978
vn -0.0000 0.9953 -0.0967
vn -0.0000 0.1787 -0.9839
vn -0.0000 0.4531 -0.8915
vn -0.0000 0.8906 -0.4547
vn -0.0000 -0.9999 0.0128
vn -0.0000 -0.6643 0.7475
vn -0.0000 -0.1765 0.9843
vn -0.0000 -0.5586 0.8294
vn -0.0000 -0.9891 0.1473
vn -0.0000 -0.0660 0.9978
vn -0.0000 0.9953 0.0967
vn -0.0000 0.1786 0.9839
vn -0.0000 0.4532 0.8914
vn -0.0000 0.8906 0.4548
vn -0.0000 -0.9999 -0.0128
vn -0.0000 -0.6643 -0.7475
vn -0.0000 -0.1764 -0.9843
vn -0.0000 -0.5586 -0.8294
vn -0.0000 -0.9891 -0.1473
vn 0.9962 0.0872 -0.0000
vn 0.9184 0.1135 -0.3791
vn 0.9182 0.1135 -0.3795
vn 0.7018 0.1228 -0.7017
vn 0.7018 0.1228 -0.7018
vn 0.3795 0.1135 -0.9182
vn 0.3791 0.1135 -0.9184
vn -0.0000 0.0872 -0.9962
vn 0.3624 0.9320 -0.0000
vn 0.1409 0.9797 0.1423
vn 0.4112 0.9004 0.1423
vn 0.1295 0.9004 0.4154
vn 0.3779 0.8274 0.4154
vn 0.5957 0.6875 0.4154
vn 0.6482 0.7481 0.1423
vn 0.3140 0.6875 0.6549
vn 0.1076 0.7481 0.6549
vn 0.0769 0.5352 0.8412
vn 0.2246 0.4918 0.8413
vn -0.0000 0.7373 0.6756
vn -0.0000 0.9320 0.3624
vn -0.0000 0.4423 0.8969
vn 0.0400 0.2789 0.9595
vn -0.0000 0.0872 0.9962
vn 0.1170 0.2563 0.9595
vn 0.1845 0.2129 0.9595
vn 0.3540 0.4086 0.8412
vn 0.4548 0.2923 0.8412
vn 0.6358 0.4085 0.6549
vn 0.5187 0.1523 0.8413
vn 0.7251 0.2129 0.6548
vn 0.8728 0.2563 0.4154
vn 0.7652 0.4918 0.4154
vn 0.9182 0.1135 0.3795
vn 0.7018 0.1228 0.7018
vn 0.9497 0.2788 0.1423
vn 0.8969 0.4423 -0.0000
vn 0.8327 0.5351 0.1423
vn 0.6756 0.7373 -0.0000
vn 0.4949 0.5712 0.6549
vn 0.3795 0.1135 0.9182
vn 0.9497 0.2789 -0.1423
vn 0.8327 0.5351 -0.1423
vn 0.8728 0.2563 -0.4154
vn 0.7652 0.4918 -0.4154
vn 0.5957 0.6875 -0.4154
vn 0.6482 0.7481 -0.1423
vn 0.6358 0.4086 -0.6549
vn 0.7251 0.2129 -0.6549
vn 0.5187 0.1523 -0.8413
vn 0.4548 0.2923 -0.8412
vn 0.1845 0.2129 -0.9595
vn 0.3540 0.4087 -0.8412
vn 0.1170 0.2563 -0.9595
vn 0.2246 0.4918 -0.8413
vn 0.3139 0.6875 -0.6549
vn 0.4949 0.5712 -0.6548
vn 0.0770 0.5351 -0.8413
vn 0.0401 0.2789 -0.9595
vn -0.0000 0.4423 -0.8969
vn -0.0000 0.7373 -0.6756
vn 0.1076 0.7481 -0.6549
vn 0.1295 0.9004 -0.4154
vn 0.3779 0.8274 -0.4155
vn 0.4112 0.9004 -0.1423
vn 0.1409 0.9797 -0.1423
vn -0.0000 0.9320 -0.3624
vn 0.3791 0.1135 0.9184
vn 0.7017 0.1228 0.7018
vn 0.9184 0.1135 0.3791
vn -0.7018 0.1228 -0.7018
vn -0.7252 0.2129 -0.6548
vn -0.5187 0.1523 -0.8413
vn -0.3795 0.1135 -0.9182
vn -0.4548 0.2923 -0.8412
vn -0.1845 0.2129 -0.9595
vn -0.3540 0.4086 -0.8413
vn -0.2246 0.4918 -0.8413
vn -0.4949 0.5711 -0.6549
vn -0.3139 0.6875 -0.6549
vn -0.1076 0.7481 -0.6549
vn -0.0769 0.5351 -0.8412
vn -0.3779 0.8274 -0.4154
vn -0.5957 0.6875 -0.4154
vn -0.6482 0.7481 -0.1423
vn -0.4112 0.9004 -0.1423
vn -0.7652 0.4918 -0.4154
vn -0.6358 0.4086 -0.6548
vn -0.8728 0.2563 -0.4154
vn -0.9182 0.1135 -0.3795
vn -0.9497 0.2789 -0.1423
vn -0.8327 0.5351 -0.1423
vn -0.8969 0.4423 -0.0000
vn -0.6756 0.7373 -0.0000
vn -0.3624 0.9320 -0.0000
vn -0.1409 0.9797 -0.1423
vn -0.1295 0.9004 -0.4154
vn -0.0400 0.2789 -0.9595
vn -0.1170 0.2563 -0.9595
vn -0.9962 0.0872 -0.0000
vn -0.1409 0.9797 0.1423
vn -0.1295 0.9004 0.4154
vn -0.4112 0.9004 0.1423
vn -0.3779 0.8274 0.4154
vn -0.3140 0.6875 0.6549
vn -0.1075 0.7481 0.6549
vn -0.5957 0.6875 0.4154
vn -0.6482 0.7481 0.1423
vn -0.8327 0.5351 0.1423
vn -0.7652 0.4918 0.4154
vn -0.9497 0.2788 0.1423
vn -0.9182 0.1136 0.3795
vn -0.8728 0.2563 0.4154
vn -0.7251 0.2129 0.6549
vn -0.7018 0.1228 0.7018
vn -0.5188 0.1523 0.8412
vn -0.4548 0.2923 0.8412
vn -0.3795 0.1135 0.9182
vn -0.1845 0.2129 0.9595
vn -0.1170 0.2563 0.9595
vn -0.0401 0.2789 0.9595
vn -0.0769 0.5351 0.8412
vn -0.2246 0.4918 0.8413
vn -0.3540 0.4086 0.8412
vn -0.4949 0.5712 0.6548
vn -0.6358 0.4085 0.6549
vn -0.3791 0.1135 -0.9184
vn -0.7018 0.1228 -0.7017
vn -0.9183 0.1135 -0.3791
vn -0.9183 0.1135 0.3791
vn -0.7017 0.1228 0.7018
vn -0.3791 0.1135 0.9184
vn 0.2081 -0.0000 -0.9781
vn -0.2081 -0.0000 -0.9781
vn 0.2078 -0.0000 -0.9782
vn 0.5882 -0.0000 -0.8087
vn 0.5877 -0.0000 -0.8090
vn 0.8662 -0.0000 -0.4997
vn 0.9945 -0.0000 -0.1044
vn 0.9945 -0.0000 -0.1043
vn 0.9510 -0.0000 0.3091
vn 0.7431 -0.0000 0.6691
vn 0.7431 -0.0000 0.6692
vn 0.4066 -0.0000 0.9136
vn 0.4065 -0.0000 0.9136
vn 0.0001 -0.0000 1.0000
vn -0.4066 -0.0000 0.9136
vn -0.7432 -0.0000 0.6691
vn -0.7431 -0.0000 0.6692
vn -0.9510 -0.0000 0.3091
vn -0.9945 -0.0000 -0.1043
vn -0.9945 -0.0000 -0.1044
vn -0.8660 -0.0000 -0.5001
vn -0.5881 -0.0000 -0.8088
vn -0.5878 -0.0000 -0.8090
s 1
usemtl TSS_EM_3_0cMtl1
f 1//1 2//1 3//1 4//1
f 5//2 1//2 4//2 6//2
f 7//3 5//3 6//3 8//3
f 2//4 7//4 8//4 3//4
f 4//5 3//5 8//5 6//5
f 7//6 2//6 1//6 5//6
usemtl TSS_EM_3_0cMtl2
f 9//1 10//1 11//1 12//1
f 10//4 13//4 14//4 11//4
f 13//3 15//3 16//3 14//3
f 15//2 9//2 12//2 16//2
f 10//6 9//6 15//6 13//6
f 16//5 12//5 11//5 14//5
usemtl TSS_EM_3_0cMtl3
f 17//7 18//7 19//7 20//7
f 18//8 21//8 22//8 19//8
f 21//9 23//9 24//9 22//9
f 23//10 25//10 26//10 24//10
f 25//11 27//11 28//11 26//11
f 29//12 30//12 31//12 32//12
f 33//1 34//1 35//1 36//1
f 37//2 38//2 39//2 40//2
f 41//5 42//5 43//5
f 41//5 44//5 42//5
f 45//5 41//5 43//5
f 46//5 45//5 43//5
f 47//5 45//5 48//5
f 49//5 47//5 48//5
f 50//5 51//5 52//5
f 53//5 51//5 50//5
f 54//5 55//5 56//5
f 42//5 55//5 54//5
f 57//5 58//5 59//5
f 57//5 59//5 60//5
f 57//5 60//5 61//5
f 62//5 58//5 57//5
f 63//5 57//5 61//5
f 64//5 65//5 57//5
f 66//5 65//5 64//5
f 67//5 64//5 68//5
f 67//5 66//5 64//5
f 67//5 69//5 66//5
f 70//5 67//5 68//5
f 71//5 72//5 73//5
f 74//5 71//5 73//5
f 75//5 76//5 77//5
f 75//5 77//5 78//5
f 79//5 76//5 75//5
f 80//5 75//5 78//5
f 81//5 76//5 79//5
f 59//5 79//5 75//5
f 60//5 59//5 75//5
f 82//5 38//5 37//5
f 83//5 82//5 37//5
f 84//5 82//5 83//5
f 85//5 84//5 83//5
f 86//5 84//5 85//5
f 87//5 86//5 85//5
f 88//5 86//5 87//5
f 89//5 86//5 88//5
f 90//5 88//5 87//5
f 77//5 91//5 88//5
f 92//5 77//5 88//5
f 93//5 94//5 49//5
f 93//5 49//5 34//5
f 29//5 93//5 34//5
f 95//5 93//5 29//5
f 96//5 95//5 29//5
f 97//5 94//5 93//5
f 30//5 29//5 34//5
f 98//5 94//5 97//5
f 99//5 95//5 96//5
f 100//5 30//5 34//5
f 101//5 95//5 99//5
f 102//5 101//5 99//5
f 103//5 101//5 102//5
f 104//5 100//5 34//5
f 105//5 94//5 98//5
f 106//5 103//5 102//5
f 106//5 94//5 105//5
f 107//5 106//5 102//5
f 108//5 106//5 107//5
f 108//5 94//5 106//5
f 108//5 107//5 104//5
f 108//5 104//5 34//5
f 109//5 94//5 108//5
f 110//5 109//5 108//5
f 17//5 109//5 110//5
f 111//5 94//5 109//5
f 112//5 108//5 34//5
f 113//5 112//5 34//5
f 18//5 17//5 110//5
f 114//5 18//5 110//5
f 27//5 94//5 111//5
f 25//5 94//5 27//5
f 21//5 18//5 114//5
f 115//5 21//5 114//5
f 116//5 113//5 34//5
f 23//5 21//5 115//5
f 23//5 94//5 25//5
f 117//5 23//5 115//5
f 118//5 23//5 117//5
f 118//5 94//5 23//5
f 33//5 118//5 117//5
f 33//5 117//5 116//5
f 33//5 116//5 34//5
f 119//5 118//5 33//5
f 120//5 118//5 119//5
f 121//5 120//5 119//5
f 122//5 120//5 121//5
f 123//5 122//5 121//5
f 124//5 122//5 123//5
f 86//3 89//3 125//3 126//3
f 127//6 128//6 129//6
f 130//6 128//6 127//6
f 131//6 132//6 130//6
f 131//6 130//6 127//6
f 133//6 132//6 131//6
f 134//6 135//6 131//6
f 136//6 135//6 134//6
f 137//6 36//6 35//6
f 138//6 137//6 35//6
f 139//6 138//6 35//6
f 132//6 139//6 35//6
f 140//6 139//6 132//6
f 141//6 139//6 140//6
f 31//6 140//6 132//6
f 142//6 141//6 140//6
f 143//6 141//6 142//6
f 144//6 139//6 141//6
f 145//6 139//6 144//6
f 146//6 143//6 142//6
f 32//6 31//6 132//6
f 147//6 143//6 146//6
f 148//6 32//6 132//6
f 149//6 147//6 146//6
f 150//6 147//6 149//6
f 151//6 139//6 145//6
f 152//6 150//6 149//6
f 153//6 152//6 149//6
f 19//6 152//6 153//6
f 19//6 151//6 152//6
f 19//6 139//6 151//6
f 154//6 19//6 153//6
f 154//6 153//6 148//6
f 154//6 148//6 132//6
f 155//6 154//6 132//6
f 20//6 19//6 154//6
f 22//6 139//6 19//6
f 156//6 20//6 154//6
f 157//6 20//6 156//6
f 158//6 157//6 156//6
f 24//6 139//6 22//6
f 159//6 155//6 132//6
f 160//6 159//6 132//6
f 161//6 157//6 158//6
f 162//6 161//6 158//6
f 26//6 139//6 24//6
f 163//6 161//6 162//6
f 28//6 161//6 163//6
f 133//6 26//6 28//6
f 133//6 139//6 26//6
f 133//6 28//6 163//6
f 133//6 163//6 160//6
f 133//6 160//6 132//6
f 164//6 139//6 133//6
f 165//6 164//6 133//6
f 166//6 165//6 133//6
f 167//6 166//6 133//6
f 168//6 167//6 133//6
f 169//6 170//6 171//6
f 172//6 169//6 171//6
f 173//6 127//6 172//6
f 174//6 127//6 173//6
f 131//6 127//6 174//6
f 175//6 174//6 173//6
f 176//6 174//6 175//6
f 177//6 178//6 179//6
f 180//6 178//6 177//6
f 173//6 172//6 180//6
f 173//6 180//6 177//6
f 181//6 173//6 177//6
f 182//6 181//6 177//6
f 183//6 181//6 182//6
f 184//6 183//6 182//6
f 185//6 186//6 187//6
f 188//6 185//6 187//6
f 182//6 177//6 188//6
f 189//6 182//6 188//6
f 190//6 191//6 189//6
f 192//6 191//6 190//6
f 193//6 194//6 195//6
f 196//6 194//6 193//6
f 40//6 194//6 196//6
f 197//6 194//6 40//6
f 198//6 199//6 197//6
f 198//6 197//6 40//6
f 200//6 198//6 40//6
f 39//6 200//6 40//6
f 201//6 200//6 39//6
f 202//6 200//6 201//6
f 125//6 200//6 202//6
f 126//6 125//6 202//6
f 199//6 203//6 204//6
f 205//6 203//6 199//6
f 198//6 188//6 205//6
f 198//6 205//6 199//6
f 189//6 188//6 198//6
f 206//6 207//6 198//6
f 208//6 207//6 206//6
f 195//1 87//1 193//13
f 193//13 87//1 85//13
f 83//14 193//13 85//13
f 83//14 196//14 193//13
f 83//14 40//2 196//14
f 83//14 37//2 40//2
f 139//4 123//4 138//15
f 138//15 123//4 121//15
f 119//16 138//15 121//15
f 119//16 137//16 138//15
f 119//16 36//1 137//16
f 119//16 33//1 36//1
f 108//12 112//12 143//12 147//12
f 110//17 108//17 147//17 150//17
f 114//18 110//18 150//18 152//18
f 115//11 114//11 152//11 151//11
f 117//10 115//10 151//10 145//10
f 116//9 117//9 145//9 144//9
f 113//8 116//8 144//8 141//8
f 112//7 113//7 141//7 143//7
f 109//12 17//12 20//12 157//12
f 111//17 109//17 157//17 161//17
f 27//18 111//18 161//18 28//18
f 96//17 29//17 32//17 148//17
f 99//18 96//18 148//18 153//18
f 102//11 99//11 153//11 149//11
f 107//19 102//19 149//19 146//19
f 104//20 107//20 146//20 142//20
f 100//8 104//8 142//8 140//8
f 30//7 100//7 140//7 31//7
f 93//12 95//12 155//12 159//12
f 97//17 93//17 159//17 160//17
f 98//18 97//18 160//18 163//18
f 105//11 98//11 163//11 162//11
f 106//19 105//19 162//19 158//19
f 103//20 106//20 158//20 156//20
f 101//8 103//8 156//8 154//8
f 95//7 101//7 154//7 155//7
f 39//2 38//2 201//21
f 201//21 38//2 82//21
f 84//22 201//21 82//21
f 84//22 202//22 201//21
f 84//22 126//3 202//22
f 84//22 86//3 126//3
f 167//3 118//3 166//23
f 166//23 118//3 120//23
f 122//24 166//23 120//23
f 122//24 165//24 166//23
f 122//24 164//4 165//24
f 122//24 124//4 164//4
f 44//3 41//3 136//3 134//3
f 42//2 44//2 134//2 131//2
f 55//3 42//3 131//3 174//3
f 53//4 55//4 174//4 176//4
f 51//3 53//3 176//3 175//3
f 71//2 51//2 175//2 173//2
f 72//3 71//3 173//3 181//3
f 67//4 72//4 181//4 183//4
f 69//3 67//3 183//3 184//3
f 66//2 69//2 184//2 182//2
f 65//3 66//3 182//3 191//3
f 62//4 65//4 191//4 192//4
f 58//3 62//3 192//3 190//3
f 59//2 58//2 190//2 189//2
f 79//3 59//3 189//3 207//3
f 81//4 79//4 207//4 208//4
f 76//3 81//3 208//3 206//3
f 77//2 76//2 206//2 198//2
f 91//3 77//3 198//3 200//3
f 89//4 91//4 200//4 125//4
f 90//1 87//1 195//1 194//1
f 88//4 90//4 194//4 197//4
f 92//1 88//1 197//1 199//1
f 78//2 92//2 199//2 204//2
f 80//1 78//1 204//1 203//1
f 75//4 80//4 203//4 205//4
f 60//1 75//1 205//1 188//1
f 61//2 60//2 188//2 187//2
f 63//1 61//1 187//1 186//1
f 57//4 63//4 186//4 185//4
f 64//1 57//1 185//1 177//1
f 68//2 64//2 177//2 179//2
f 70//1 68//1 179//1 178//1
f 73//4 70//4 178//4 180//4
f 74//1 73//1 180//1 172//1
f 52//2 74//2 172//2 171//2
f 50//1 52//1 171//1 170//1
f 56//4 50//4 170//4 169//4
f 54//1 56//1 169//1 127//1
f 43//2 54//2 127//2 129//2
f 94//3 118//3 167//3 168//3
f 47//2 94//2 168//2 133//2
f 45//3 47//3 133//3 135//3
f 41//4 45//4 135//4 136//4
f 48//4 46//4 128//4 130//4
f 49//1 48//1 130//1 132//1
f 34//2 49//2 132//2 35//2
f 46//1 43//1 129//1 128//1
f 124//4 123//4 139//4 164//4
usemtl TSS_EM_3_0cMtl4
f 209//1 210//1 211//1 212//1
f 209//5 213//5 214//5 210//5
f 214//3 213//3 215//3 216//3
f 213//4 209//4 212//4 215//4
f 212//6 211//6 216//6 215//6
f 210//2 214//2 216//2 211//2
usemtl TSS_EM_3_0cMtl5
f 217//3 218//3 219//3 220//3
f 221//2 217//2 220//2 222//2
f 223//1 221//1 222//1 224//1
f 225//4 223//4 224//4 226//4
f 227//6 228//6 229//6
f 230//6 228//6 227//6
f 231//6 227//6 229//6
f 232//6 228//6 230//6
f 233//6 232//6 230//6
f 234//6 231//6 229//6
f 235//6 234//6 229//6
f 219//4 218//4 236//25
f 236//25 218//4 237//25
f 238//3 237//25 239//3
f 240//26 239//3 241//26
f 242//2 241//26 243//2
f 242//2 240//26 241//26
f 240//26 238//3 239//3
f 238//3 236//25 237//25
f 218//5 217//5 221//5
f 237//5 218//5 221//5
f 239//5 237//5 221//5
f 241//5 239//5 221//5
f 225//5 243//5 241//5
f 223//5 225//5 241//5
f 223//5 241//5 221//5
f 238//6 224//6 222//6
f 240//6 224//6 238//6
f 236//6 238//6 222//6
f 226//6 224//6 240//6
f 242//6 226//6 240//6
f 219//6 236//6 222//6
f 220//6 219//6 222//6
f 244//3 245//3 246//3 247//3
f 248//2 244//2 247//2 249//2
f 250//1 248//1 249//1 251//1
f 252//4 250//4 251//4 253//4
f 254//3 252//3 253//3 255//3
f 246//4 245//4 256//25
f 256//25 245//4 257//25
f 258//3 257//25 259//3
f 260//26 259//3 261//26
f 255//2 261//26 254//2
f 255//2 260//26 261//26
f 260//26 258//3 259//3
f 258//3 256//25 257//25
f 245//5 244//5 248//5
f 257//5 245//5 248//5
f 259//5 257//5 248//5
f 261//5 259//5 248//5
f 252//5 254//5 261//5
f 250//5 252//5 261//5
f 250//5 261//5 248//5
f 258//6 251//6 249//6
f 260//6 251//6 258//6
f 256//6 258//6 249//6
f 253//6 251//6 260//6
f 255//6 253//6 260//6
f 246//6 256//6 249//6
f 247//6 246//6 249//6
f 262//3 263//3 264//3 265//3
f 266//2 262//2 265//2 267//2
f 268//1 266//1 267//1 269//1
f 270//4 268//4 269//4 271//4
f 272//3 270//3 271//3 273//3
f 264//4 263//4 274//25
f 274//25 263//4 275//25
f 276//3 275//25 277//3
f 278//26 277//3 279//26
f 273//2 279//26 272//2
f 273//2 278//26 279//26
f 278//26 276//3 277//3
f 276//3 274//25 275//25
f 263//5 262//5 266//5
f 275//5 263//5 266//5
f 277//5 275//5 266//5
f 279//5 277//5 266//5
f 270//5 272//5 279//5
f 268//5 270//5 279//5
f 268//5 279//5 266//5
f 276//6 269//6 267//6
f 278//6 269//6 276//6
f 274//6 276//6 267//6
f 271//6 269//6 278//6
f 273//6 271//6 278//6
f 264//6 274//6 267//6
f 265//6 264//6 267//6
f 280//27 281//27 282//1
f 280//27 283//4 281//27
f 280//27 284//4 283//4
f 283//4 284//4 285//25
f 285//25 284//4 286//25
f 287//3 286//25 288//3
f 289//28 288//3 290//26
f 291//2 290//26 292//2
f 293//29 292//2 294//30
f 295//1 294//30 282//1
f 281//27 295//1 282//1
f 295//1 293//29 294//30
f 293//29 291//2 292//2
f 291//2 289//28 290//26
f 289//28 287//3 288//3
f 287//3 285//25 286//25
f 296//25 297//25 298//3
f 296//25 299//4 297//25
f 296//25 300//4 299//4
f 299//4 300//4 301//27
f 301//27 300//4 302//27
f 303//1 302//27 304//1
f 305//29 304//1 306//29
f 307//2 306//29 308//2
f 309//26 308//2 310//26
f 311//3 310//26 298//3
f 297//25 311//3 298//3
f 311//3 309//26 310//26
f 309//26 307//2 308//2
f 307//2 305//29 306//29
f 305//29 303//1 304//1
f 303//1 301//27 302//27
f 312//5 313//5 314//5
f 315//5 313//5 312//5
f 316//5 313//5 315//5
f 317//5 315//5 312//5
f 318//5 317//5 312//5
f 319//5 313//5 316//5
f 320//5 318//5 312//5
f 321//5 313//5 319//5
f 322//5 318//5 320//5
f 323//5 321//5 319//5
f 324//5 323//5 325//5
f 324//5 321//5 323//5
f 326//5 324//5 325//5
f 326//5 325//5 322//5
f 326//5 322//5 320//5
f 327//5 324//5 326//5
f 328//6 329//6 330//6
f 331//6 328//6 330//6
f 332//6 328//6 331//6
f 333//6 331//6 330//6
f 334//6 328//6 332//6
f 335//6 333//6 330//6
f 336//6 328//6 334//6
f 337//6 333//6 335//6
f 338//6 336//6 334//6
f 339//6 337//6 335//6
f 340//6 338//6 341//6
f 340//6 336//6 338//6
f 342//6 340//6 341//6
f 342//6 341//6 339//6
f 342//6 339//6 335//6
f 343//6 340//6 342//6
f 316//27 339//27 319//1
f 316//27 337//4 339//27
f 316//27 315//4 337//4
f 337//4 315//4 333//25
f 333//25 315//4 317//25
f 331//3 317//25 318//3
f 332//26 318//3 322//26
f 334//2 322//26 325//2
f 338//29 325//2 323//29
f 341//1 323//29 319//1
f 339//27 341//1 319//1
f 341//1 338//29 323//29
f 338//29 334//2 325//2
f 334//2 332//26 322//26
f 332//26 331//3 318//3
f 331//3 333//25 317//25
f 324//25 340//25 321//3
f 324//25 336//4 340//25
f 324//25 327//4 336//4
f 336//4 327//4 328//27
f 328//27 327//4 326//27
f 329//1 326//27 320//1
f 330//29 320//1 312//29
f 335//2 312//29 314//2
f 342//26 314//2 313//26
f 343//3 313//26 321//3
f 340//25 343//3 321//3
f 343//3 342//26 313//26
f 342//26 335//2 314//2
f 335//2 330//29 312//29
f 330//29 329//1 320//1
f 329//1 328//27 326//27
f 344//27 345//27 346//1
f 344//27 347//4 345//27
f 344//27 348//4 347//4
f 347//4 348//4 349//25
f 349//25 348//4 350//25
f 351//3 350//25 352//3
f 353//28 352//3 354//26
f 355//2 354//26 356//2
f 357//29 356//2 358//30
f 359//1 358//30 346//1
f 345//27 359//1 346//1
f 359//1 357//29 358//30
f 357//29 355//2 356//2
f 355//2 353//28 354//26
f 353//28 351//3 352//3
f 351//3 349//25 350//25
f 360//25 361//25 362//3
f 360//25 363//4 361//25
f 360//25 364//4 363//4
f 363//4 364//4 365//27
f 365//27 364//4 366//27
f 367//1 366//27 368//1
f 369//29 368//1 370//29
f 371//2 370//29 372//2
f 373//26 372//2 374//26
f 375//3 374//26 362//3
f 361//25 375//3 362//3
f 375//3 373//26 374//26
f 373//26 371//2 372//2
f 371//2 369//29 370//29
f 369//29 367//1 368//1
f 367//1 365//27 366//27
f 370//5 374//5 372//5
f 348//5 374//5 370//5
f 344//5 374//5 348//5
f 350//5 348//5 370//5
f 352//5 350//5 370//5
f 346//5 374//5 344//5
f 368//5 352//5 370//5
f 362//5 374//5 346//5
f 354//5 352//5 368//5
f 358//5 362//5 346//5
f 360//5 358//5 356//5
f 360//5 362//5 358//5
f 366//5 360//5 356//5
f 366//5 356//5 354//5
f 366//5 354//5 368//5
f 364//5 360//5 366//5
f 365//6 367//6 369//6
f 351//6 365//6 369//6
f 353//6 365//6 351//6
f 349//6 351//6 369//6
f 355//6 365//6 353//6
f 371//6 349//6 369//6
f 363//6 365//6 355//6
f 347//6 349//6 371//6
f 357//6 363//6 355//6
f 345//6 347//6 371//6
f 361//6 357//6 359//6
f 361//6 363//6 357//6
f 373//6 361//6 359//6
f 373//6 359//6 345//6
f 373//6 345//6 371//6
f 375//6 361//6 373//6
f 376//27 377//27 378//1
f 376//27 379//4 377//27
f 376//27 380//4 379//4
f 379//4 380//4 381//25
f 381//25 380//4 382//25
f 383//3 382//25 384//3
f 385//26 384//3 386//26
f 387//2 386//26 388//2
f 389//29 388//2 390//29
f 391//1 390//29 378//1
f 377//27 391//1 378//1
f 391//1 389//29 390//29
f 389//29 387//2 388//2
f 387//2 385//26 386//26
f 385//26 383//3 384//3
f 383//3 381//25 382//25
f 392//25 393//25 394//3
f 392//25 395//4 393//25
f 392//25 396//4 395//4
f 395//4 396//4 397//27
f 397//27 396//4 398//27
f 399//1 398//27 400//1
f 401//29 400//1 402//29
f 403//2 402//29 404//2
f 405//26 404//2 406//26
f 407//3 406//26 394//3
f 393//25 407//3 394//3
f 407//3 405//26 406//26
f 405//26 403//2 404//2
f 403//2 401//29 402//29
f 401//29 399//1 400//1
f 399//1 397//27 398//27
f 402//5 406//5 404//5
f 380//5 406//5 402//5
f 376//5 406//5 380//5
f 382//5 380//5 402//5
f 384//5 382//5 402//5
f 378//5 406//5 376//5
f 400//5 384//5 402//5
f 394//5 406//5 378//5
f 386//5 384//5 400//5
f 390//5 394//5 378//5
f 392//5 390//5 388//5
f 392//5 394//5 390//5
f 398//5 392//5 388//5
f 398//5 388//5 386//5
f 398//5 386//5 400//5
f 396//5 392//5 398//5
f 397//6 399//6 401//6
f 383//6 397//6 401//6
f 385//6 397//6 383//6
f 381//6 383//6 401//6
f 387//6 397//6 385//6
f 403//6 381//6 401//6
f 395//6 397//6 387//6
f 379//6 381//6 403//6
f 389//6 395//6 387//6
f 377//6 379//6 403//6
f 393//6 389//6 391//6
f 393//6 395//6 389//6
f 405//6 393//6 391//6
f 405//6 391//6 377//6
f 405//6 377//6 403//6
f 407//6 393//6 405//6
f 306//5 310//5 308//5
f 284//5 310//5 306//5
f 280//5 310//5 284//5
f 286//5 284//5 306//5
f 288//5 286//5 306//5
f 282//5 310//5 280//5
f 304//5 288//5 306//5
f 298//5 310//5 282//5
f 290//5 288//5 304//5
f 294//5 298//5 282//5
f 296//5 294//5 292//5
f 296//5 298//5 294//5
f 302//5 296//5 292//5
f 302//5 292//5 290//5
f 302//5 290//5 304//5
f 300//5 296//5 302//5
f 301//6 303//6 305//6
f 287//6 301//6 305//6
f 289//6 301//6 287//6
f 285//6 287//6 305//6
f 291//6 301//6 289//6
f 307//6 285//6 305//6
f 299//6 301//6 291//6
f 283//6 285//6 307//6
f 293//6 299//6 291//6
f 281//6 283//6 307//6
f 297//6 293//6 295//6
f 297//6 299//6 293//6
f 309//6 297//6 295//6
f 309//6 295//6 281//6
f 309//6 281//6 307//6
f 311//6 297//6 309//6
f 408//5 409//5 410//5
f 411//5 408//5 410//5
f 412//5 411//5 410//5
f 413//5 412//5 410//5
f 414//5 415//5 413//5
f 416//5 414//5 413//5
f 416//5 413//5 410//5
f 234//4 408//4 231//25
f 231//25 408//4 411//25
f 227//3 411//25 412//3
f 230//26 412//3 413//26
f 233//2 413//26 415//2
f 233//2 230//26 413//26
f 230//26 227//3 412//3
f 227//3 231//25 411//25
f 415//3 414//3 232//3 233//3
f 414//4 416//4 228//4 232//4
f 416//1 410//1 229//1 228//1
f 410//2 409//2 235//2 229//2
f 409//3 408//3 234//3 235//3
f 417//6 418//6 419//6
f 420//6 421//6 422//6
f 423//6 417//6 424//6
f 423//6 424//6 420//6
f 423//6 420//6 422//6
f 425//6 417//6 423//6
f 425//6 418//6 417//6
f 426//5 427//5 428//5
f 429//5 427//5 426//5
f 430//5 427//5 429//5
f 431//5 427//5 430//5
f 432//5 431//5 433//5
f 432//5 427//5 431//5
f 434//5 432//5 433//5
f 426//1 428//1 422//1 421//1
f 428//2 427//2 423//2 422//2
f 427//3 432//3 425//3 423//3
f 432//4 434//4 418//4 425//4
f 434//1 433//1 419//1 418//1
f 419//2 433//2 417//29
f 417//29 433//2 431//29
f 424//1 431//29 430//1
f 420//27 430//1 429//27
f 421//4 429//27 426//4
f 421//4 420//27 429//27
f 420//27 424//1 430//1
f 424//1 417//29 431//29
f 435//6 436//6 437//6
f 438//6 436//6 435//6
f 439//6 435//6 437//6
f 440//6 436//6 438//6
f 441//6 440//6 438//6
f 442//6 439//6 437//6
f 443//6 442//6 437//6
f 444//5 445//5 446//5
f 447//5 444//5 446//5
f 448//5 447//5 446//5
f 449//5 448//5 446//5
f 450//5 451//5 449//5
f 452//5 450//5 449//5
f 452//5 449//5 446//5
f 442//4 444//4 439//25
f 439//25 444//4 447//25
f 435//3 447//25 448//3
f 438//26 448//3 449//26
f 441//2 449//26 451//2
f 441//2 438//26 449//26
f 438//26 435//3 448//3
f 435//3 439//25 447//25
f 451//3 450//3 440//3 441//3
f 450//4 452//4 436//4 440//4
f 452//1 446//1 437//1 436//1
f 446//2 445//2 443//2 437//2
f 445//3 444//3 442//3 443//3
f 453//6 454//6 455//6
f 456//6 457//6 458//6
f 459//6 453//6 460//6
f 459//6 460//6 456//6
f 459//6 456//6 458//6
f 461//6 453//6 459//6
f 461//6 454//6 453//6
f 462//5 463//5 464//5
f 465//5 463//5 462//5
f 466//5 463//5 465//5
f 467//5 463//5 466//5
f 468//5 467//5 469//5
f 468//5 463//5 467//5
f 470//5 468//5 469//5
f 462//1 464//1 458//1 457//1
f 464//2 463//2 459//2 458//2
f 463//3 468//3 461//3 459//3
f 468//4 470//4 454//4 461//4
f 470//1 469//1 455//1 454//1
f 455//2 469//2 453//29
f 453//29 469//2 467//29
f 460//1 467//29 466//1
f 456//27 466//1 465//27
f 457//4 465//27 462//4
f 457//4 456//27 465//27
f 456//27 460//1 466//1
f 460//1 453//29 467//29
f 471//6 472//6 473//6
f 474//6 472//6 471//6
f 475//6 471//6 473//6
f 476//6 472//6 474//6
f 477//6 476//6 474//6
f 478//6 475//6 473//6
f 479//6 478//6 473//6
f 480//5 481//5 482//5
f 483//5 480//5 482//5
f 484//5 483//5 482//5
f 485//5 484//5 482//5
f 486//5 487//5 485//5
f 488//5 486//5 485//5
f 488//5 485//5 482//5
f 478//4 480//4 475//25
f 475//25 480//4 483//25
f 471//3 483//25 484//3
f 474//26 484//3 485//26
f 477//2 485//26 487//2
f 477//2 474//26 485//26
f 474//26 471//3 484//3
f 471//3 475//25 483//25
f 487//3 486//3 476//3 477//3
f 486//4 488//4 472//4 476//4
f 488//1 482//1 473//1 472//1
f 482//2 481//2 479//2 473//2
f 481//3 480//3 478//3 479//3
f 489//6 490//6 491//6
f 492//6 493//6 494//6
f 495//6 489//6 496//6
f 495//6 496//6 492//6
f 495//6 492//6 494//6
f 497//6 489//6 495//6
f 497//6 490//6 489//6
f 498//5 499//5 500//5
f 501//5 499//5 498//5
f 502//5 499//5 501//5
f 503//5 499//5 502//5
f 504//5 503//5 505//5
f 504//5 499//5 503//5
f 506//5 504//5 505//5
f 498//1 500//1 494//1 493//1
f 500//2 499//2 495//2 494//2
f 499//3 504//3 497//3 495//3
f 504//4 506//4 490//4 497//4
f 506//1 505//1 491//1 490//1
f 491//2 505//2 489//29
f 489//29 505//2 503//29
f 496//1 503//29 502//1
f 492//27 502//1 501//27
f 493//4 501//27 498//4
f 493//4 492//27 501//27
f 492//27 496//1 502//1
f 496//1 489//29 503//29
f 507//6 508//6 509//6
f 510//6 511//6 512//6
f 513//6 507//6 514//6
f 513//6 514//6 510//6
f 513//6 510//6 512//6
f 515//6 507//6 513//6
f 515//6 508//6 507//6
f 516//5 517//5 518//5
f 519//5 517//5 516//5
f 520//5 517//5 519//5
f 521//5 517//5 520//5
f 522//5 521//5 523//5
f 522//5 517//5 521//5
f 524//5 522//5 523//5
f 516//1 518//1 512//1 511//1
f 518//2 517//2 513//2 512//2
f 517//3 522//3 515//3 513//3
f 522//4 524//4 508//4 515//4
f 524//1 523//1 509//1 508//1
f 509//2 523//2 507//29
f 507//29 523//2 521//29
f 514//1 521//29 520//1
f 510//27 520//1 519//27
f 511//4 519//27 516//4
f 511//4 510//27 519//27
f 510//27 514//1 520//1
f 514//1 507//29 521//29
f 525//6 526//6 527//6
f 528//6 529//6 530//6
f 531//6 525//6 532//6
f 531//6 532//6 528//6
f 531//6 528//6 530//6
f 533//6 525//6 531//6
f 533//6 526//6 525//6
f 534//5 535//5 536//5
f 537//5 535//5 534//5
f 538//5 535//5 537//5
f 539//5 535//5 538//5
f 540//5 539//5 541//5
f 540//5 535//5 539//5
f 542//5 540//5 541//5
f 534//1 536//1 530//1 529//1
f 536//2 535//2 531//2 530//2
f 535//3 540//3 533//3 531//3
f 540//4 542//4 526//4 533//4
f 542//1 541//1 527//1 526//1
f 527//2 541//2 525//29
f 525//29 541//2 539//29
f 532//1 539//29 538//1
f 528//27 538//1 537//27
f 529//4 537//27 534//4
f 529//4 528//27 537//27
f 528//27 532//1 538//1
f 532//1 525//29 539//29
f 543//6 544//6 545//6
f 546//6 547//6 548//6
f 549//6 543//6 550//6
f 549//6 550//6 546//6
f 549//6 546//6 548//6
f 551//6 543//6 549//6
f 551//6 544//6 543//6
f 552//5 553//5 554//5
f 555//5 553//5 552//5
f 556//5 553//5 555//5
f 557//5 553//5 556//5
f 558//5 557//5 559//5
f 558//5 553//5 557//5
f 560//5 558//5 559//5
f 552//1 554//1 548//1 547//1
f 554//2 553//2 549//2 548//2
f 553//3 558//3 551//3 549//3
f 558//4 560//4 544//4 551//4
f 560//1 559//1 545//1 544//1
f 545//2 559//2 543//29
f 543//29 559//2 557//29
f 550//1 557//29 556//1
f 546//27 556//1 555//27
f 547//4 555//27 552//4
f 547//4 546//27 555//27
f 546//27 550//1 556//1
f 550//1 543//29 557//29
f 561//5 562//5 563//5
f 564//5 562//5 561//5
f 565//5 562//5 564//5
f 566//5 565//5 564//5
f 567//5 566//5 564//5
f 568//5 566//5 567//5
f 569//6 570//6 571//6
f 572//6 570//6 569//6
f 573//6 572//6 569//6
f 574//6 572//6 573//6
f 575//6 574//6 573//6
f 576//6 574//6 575//6
f 575//28 562//28 576//31
f 575//28 563//2 562//28
f 575//28 573//32 563//2
f 563//2 573//32 561//29
f 561//29 573//32 569//29
f 564//33 569//29 571//1
f 567//27 571//1 570//27
f 568//34 570//27 572//4
f 566//25 572//4 574//25
f 565//3 574//25 576//31
f 562//28 565//3 576//31
f 565//3 566//25 574//25
f 566//25 568//34 572//4
f 568//34 567//27 570//27
f 567//27 564//33 571//1
f 564//33 561//29 569//29
f 577//5 578//5 579//5
f 580//5 578//5 577//5
f 581//5 578//5 580//5
f 582//5 581//5 580//5
f 583//5 582//5 580//5
f 584//5 582//5 583//5
f 585//6 586//6 587//6
f 588//6 586//6 585//6
f 589//6 588//6 585//6
f 590//6 588//6 589//6
f 591//6 590//6 589//6
f 592//6 590//6 591//6
f 243//3 225//3 226//3 242//3
f 591//26 578//26 592//31
f 591//26 579//2 578//26
f 591//26 589//32 579//2
f 579//2 589//32 577//35
f 577//35 589//32 585//29
f 580//33 585//29 587//1
f 583//36 587//1 586//36
f 584//34 586//36 588//4
f 582//25 588//4 590//25
f 581//3 590//25 592//31
f 578//26 581//3 592//31
f 581//3 582//25 590//25
f 582//25 584//34 588//4
f 584//34 583//36 586//36
f 583//36 580//33 587//1
f 580//33 577//35 585//29
usemtl TSS_EM_3_0cMtl6
f 593//2 594//2 595//2 596//2
f 594//6 597//6 598//6 595//6
f 599//5 600//5 601//5 602//5
f 600//1 603//1 604//1 601//1
f 601//4 604//4 605//4 602//4
f 602//3 605//3 606//3 599//3
f 599//2 606//2 603//2 600//2
f 606//6 605//6 604//6 603//6
f 607//37 608//38 609//2
f 607//37 610//39 608//38
f 608//38 610//39 611//40
f 611//40 610//39 612//41
f 613//41 612//41 614//42
f 615//42 614//42 616//43
f 617//44 616//43 618//45
f 619//45 618//45 620//46
f 621//46 620//46 622//47
f 623//47 622//47 624//48
f 625//49 624//48 626//50
f 627//50 626//50 628//51
f 629//52 628//51 630//53
f 631//53 630//53 632//54
f 633//55 632//54 634//56
f 635//56 634//56 636//57
f 637//57 636//57 638//58
f 639//58 638//58 640//59
f 641//59 640//59 642//60
f 641//59 639//58 640//59
f 640//59 643//60 642//60
f 642//60 643//60 644//61
f 645//62 644//61 646//63
f 647//64 646//63 648//65
f 649//65 648//65 650//66
f 651//67 650//66 652//68
f 653//68 652//68 654//69
f 655//69 654//69 656//70
f 657//70 656//70 658//71
f 659//71 658//71 660//72
f 661//72 660//72 662//73
f 663//73 662//73 664//74
f 665//74 664//74 666//75
f 667//76 666//75 668//77
f 669//78 668//77 670//79
f 671//79 670//79 672//80
f 673//81 672//80 674//82
f 675//83 674//82 676//2
f 675//83 673//81 674//82
f 674//82 609//2 676//2
f 676//2 609//2 608//38
f 673//81 671//79 672//80
f 671//79 669//78 670//79
f 669//78 667//76 668//77
f 667//76 665//74 666//75
f 665//74 663//73 664//74
f 663//73 661//72 662//73
f 661//72 659//71 660//72
f 659//71 657//70 658//71
f 657//70 655//69 656//70
f 655//69 653//68 654//69
f 653//68 651//67 652//68
f 651//67 649//65 650//66
f 649//65 647//64 648//65
f 647//64 645//62 646//63
f 645//62 642//60 644//61
f 639//58 637//57 638//58
f 637//57 635//56 636//57
f 635//56 633//55 634//56
f 633//55 631//53 632//54
f 631//53 629//52 630//53
f 629//52 627//50 628//51
f 627//50 625//49 626//50
f 625//49 623//47 624//48
f 623//47 621//46 622//47
f 621//46 619//45 620//46
f 619//45 617//44 618//45
f 617//44 615//42 616//43
f 615//42 613//41 614//42
f 613//41 611//40 612//41
f 657//6 659//6 661//6
f 663//6 657//6 661//6
f 655//6 657//6 663//6
f 665//6 655//6 663//6
f 653//6 655//6 665//6
f 667//6 653//6 665//6
f 651//6 653//6 667//6
f 669//6 651//6 667//6
f 649//6 651//6 669//6
f 671//6 649//6 669//6
f 647//6 649//6 671//6
f 673//6 647//6 671//6
f 645//6 647//6 673//6
f 675//6 645//6 673//6
f 642//6 645//6 675//6
f 676//6 642//6 675//6
f 641//6 642//6 676//6
f 608//6 641//6 676//6
f 639//6 641//6 608//6
f 611//6 639//6 608//6
f 637//6 639//6 611//6
f 613//6 637//6 611//6
f 635//6 637//6 613//6
f 615//6 635//6 613//6
f 633//6 635//6 615//6
f 617//6 633//6 615//6
f 631//6 633//6 617//6
f 619//6 631//6 617//6
f 629//6 631//6 619//6
f 621//6 629//6 619//6
f 627//6 629//6 621//6
f 623//6 627//6 621//6
f 625//6 627//6 623//6
f 607//5 609//5 674//5
f 672//5 607//5 674//5
f 610//5 607//5 672//5
f 670//5 610//5 672//5
f 612//5 610//5 670//5
f 668//5 612//5 670//5
f 614//5 612//5 668//5
f 666//5 614//5 668//5
f 616//5 614//5 666//5
f 664//5 616//5 666//5
f 618//5 616//5 664//5
f 662//5 618//5 664//5
f 620//5 618//5 662//5
f 622//5 620//5 662//5
f 660//5 622//5 662//5
f 658//5 622//5 660//5
f 624//5 622//5 658//5
f 626//5 624//5 658//5
f 656//5 626//5 658//5
f 628//5 626//5 656//5
f 654//5 628//5 656//5
f 630//5 628//5 654//5
f 652//5 630//5 654//5
f 650//5 630//5 652//5
f 632//5 630//5 650//5
f 648//5 632//5 650//5
f 634//5 632//5 648//5
f 646//5 634//5 648//5
f 636//5 634//5 646//5
f 638//5 636//5 646//5
f 644//5 638//5 646//5
f 643//5 638//5 644//5
f 640//5 638//5 643//5
f 677//5 678//5 679//5 680//5
f 678//1 681//1 682//1 679//1
f 679//4 682//4 683//4 680//4
f 680//3 683//3 684//3 677//3
f 677//2 684//2 681//2 678//2
f 684//6 683//6 682//6 681//6
f 685//3 597//3 594//3 593//3
f 686//84 687//84 688//84 689//84
f 687//85 690//85 691//85 688//85
f 690//86 692//86 693//86 691//86
f 692//87 694//87 695//87 693//87
f 694//88 696//88 697//88 695//88
f 696//6 698//6 699//6 697//6
f 698//4 700//4 701//4 699//4
f 700//89 702//89 703//89 701//89
f 702//90 704//90 705//90 703//90
f 704//91 706//91 707//91 705//91
f 706//92 708//92 709//92 707//92
f 708//93 686//93 689//93 709//93
f 694//3 698//3 696//3
f 700//3 698//3 694//3
f 702//3 700//3 694//3
f 692//3 702//3 694//3
f 704//3 702//3 692//3
f 690//3 704//3 692//3
f 706//3 704//3 690//3
f 687//3 706//3 690//3
f 708//3 706//3 687//3
f 686//3 708//3 687//3
f 691//1 689//1 688//1
f 695//1 691//1 693//1
f 709//1 691//1 695//1
f 709//1 689//1 691//1
f 707//1 709//1 695//1
f 705//1 707//1 695//1
f 697//1 705//1 695//1
f 703//1 705//1 697//1
f 701//1 703//1 697//1
f 699//1 701//1 697//1
f 710//84 711//84 712//84 713//84
f 711//85 714//85 715//85 712//85
f 714//86 716//86 717//86 715//86
f 716//87 718//87 719//87 717//87
f 718//88 720//88 721//88 719//88
f 720//6 722//6 723//6 721//6
f 722//4 724//4 725//4 723//4
f 724//89 726//89 727//89 725//89
f 726//90 728//90 729//90 727//90
f 728//91 730//91 731//91 729//91
f 730//92 732//92 733//92 731//92
f 732//93 710//93 713//93 733//93
f 718//3 722//3 720//3
f 724//3 722//3 718//3
f 726//3 724//3 718//3
f 716//3 726//3 718//3
f 728//3 726//3 716//3
f 714//3 728//3 716//3
f 730//3 728//3 714//3
f 711//3 730//3 714//3
f 732//3 730//3 711//3
f 710//3 732//3 711//3
f 715//1 713//1 712//1
f 719//1 715//1 717//1
f 733//1 715//1 719//1
f 733//1 713//1 715//1
f 731//1 733//1 719//1
f 729//1 731//1 719//1
f 721//1 729//1 719//1
f 727//1 729//1 721//1
f 725//1 727//1 721//1
f 723//1 725//1 721//1
f 734//94 735//94 736//94 737//94
f 735//95 738//95 739//95 736//95
f 738//96 740//96 741//96 739//96
f 740//97 742//97 743//97 741//97
f 742//98 744//98 745//98 743//98
f 744//6 746//6 747//6 745//6
f 746//2 748//2 749//2 747//2
f 748//99 750//99 751//99 749//99
f 750//100 752//100 753//100 751//100
f 752//101 754//101 755//101 753//101
f 754//102 756//102 757//102 755//102
f 756//103 734//103 737//103 757//103
f 750//1 748//1 746//1
f 744//1 750//1 746//1
f 752//1 750//1 744//1
f 754//1 752//1 744//1
f 742//1 754//1 744//1
f 756//1 754//1 742//1
f 740//1 756//1 742//1
f 738//1 756//1 740//1
f 734//1 756//1 738//1
f 735//1 734//1 738//1
f 743//3 745//3 747//3
f 749//3 743//3 747//3
f 751//3 743//3 749//3
f 741//3 743//3 751//3
f 753//3 741//3 751//3
f 739//3 741//3 753//3
f 755//3 739//3 753//3
f 736//3 739//3 755//3
f 757//3 736//3 755//3
f 737//3 736//3 757//3
f 758//5 759//5 760//5 761//5
f 759//2 762//2 763//2 760//2
f 760//1 763//1 764//1 761//1
f 761//4 764//4 765//4 758//4
f 758//3 765//3 762//3 759//3
f 765//6 764//6 763//6 762//6
f 766//5 767//5 768//5 769//5
f 767//2 770//2 771//2 768//2
f 768//1 771//1 772//1 769//1
f 769//4 772//4 773//4 766//4
f 766//3 773//3 770//3 767//3
f 773//6 772//6 771//6 770//6
f 774//5 775//5 776//5 777//5
f 775//1 778//1 779//1 776//1
f 776//4 779//4 780//4 777//4
f 777//3 780//3 781//3 774//3
f 774//2 781//2 778//2 775//2
f 781//6 780//6 779//6 778//6
f 782//4 598//4 597//4 685//4
f 596//1 595//1 598//1 782//1
f 593//5 596//5 782//5 685//5
f 783//6 784//6 785//6 786//6
f 787//3 783//3 786//3 788//3
f 789//4 784//4 783//4 787//4
f 790//1 785//1 784//1 789//1
f 788//2 786//2 785//2 790//2
f 787//5 788//5 790//5 789//5
f 791//6 792//6 793//6 794//6
f 795//3 791//3 794//3 796//3
f 797//4 792//4 791//4 795//4
f 798//1 793//1 792//1 797//1
f 796//2 794//2 793//2 798//2
f 795//5 796//5 798//5 797//5
usemtl TSS_EM_3_0cMtl7
f 799//104 800//105 801//104
f 801//104 800//105 802//106
f 802//106 800//105 803//107
f 804//108 803//107 805//109
f 804//108 802//106 803//107
f 803//107 806//110 805//109
f 805//109 806//110 807//111
f 807//111 806//110 808//111
f 809//112 810//6 811//113
f 812//114 811//113 813//115 814//116
f 814//116 815//117 816//118 812//114
f 817//119 814//116 813//115 818//120
f 818//120 819//121 820//122 817//119
f 821//123 818//120 813//115
f 822//124 813//115 811//113
f 810//6 822//124 811//113
f 822//124 821//123 813//115
f 818//120 821//123 819//121
f 819//121 821//123 823//125
f 824//126 823//125 825//127
f 826//128 825//127 827//129
f 828//130 827//129 829//131
f 830//132 829//131 831//133 832//134
f 832//134 833//135 834//136 830//132
f 835//137 832//134 836//138
f 835//137 833//135 832//134
f 835//137 837//139 833//135
f 835//137 838//104 837//139
f 837//139 838//104 839//140
f 840//141 839//140 841//142
f 816//118 841//142 812//114
f 816//118 840//141 841//142
f 816//118 815//117 834//136 840//141
f 815//117 842//143 830//132 834//136
f 814//116 817//119 842//143 815//117
f 817//119 820//122 828//130 842//143
f 820//122 826//128 827//129 828//130
f 819//121 824//126 826//128 820//122
f 823//125 824//126 819//121
f 825//127 843//144 827//129
f 827//129 843//144 829//131
f 829//131 843//144 831//133
f 831//133 843//144 836//138
f 832//134 831//133 836//138
f 841//142 809//112 812//114
f 812//114 809//112 811//113
f 840//141 834//136 833//135 837//139
f 840//141 837//139 839//140
f 829//131 830//132 842//143 828//130
f 825//127 826//128 824//126
f 844//140 801//104 845//145
f 846//146 845//145 847//147 848//148
f 848//148 849//149 850//150 846//146
f 851//151 848//148 847//147 852//152
f 852//152 853//153 854//154 851//151
f 804//108 852//152 802//106
f 804//108 853//153 852//152
f 804//108 805//109 853//153
f 853//153 805//109 854//154
f 854//154 805//109 855//155
f 856//156 855//155 857//157 858//158
f 858//158 859//159 860//160 856//156
f 861//161 858//158 857//157 862//162
f 862//162 863//163 861//161
f 862//162 807//111 863//163
f 862//162 857//157 807//111
f 807//111 857//157 855//155
f 805//109 807//111 855//155
f 863//163 864//164 861//161
f 861//161 864//164 865//165
f 859//159 865//165 866//166 867//167
f 867//167 849//149 860//160 859//159
f 868//168 867//167 866//166 869//169
f 869//169 870//112 868//168
f 869//169 871//6 870//112
f 869//169 872//170 871//6
f 869//169 866//166 872//170
f 872//170 866//166 864//164
f 864//164 866//166 865//165
f 870//112 873//142 868//168
f 868//168 873//142 850//150
f 849//149 867//167 868//168 850//150
f 850//150 873//142 846//146
f 846//146 873//142 844//140
f 845//145 846//146 844//140
f 852//152 847//147 802//106
f 802//106 847//147 845//145
f 801//104 802//106 845//145
f 851//151 854//154 856//156 860//160
f 848//148 851//151 860//160 849//149
f 861//161 865//165 859//159 858//158
f 855//155 856//156 854//154
f 871//6 810//6 870//112
f 870//112 810//6 809//112
f 873//142 809//112 841//142
f 844//140 841//142 839//140
f 801//104 839//140 838//104
f 801//104 844//140 839//140
f 844//140 873//142 841//142
f 873//142 870//112 809//112
f 874//5 875//5 876//5 877//5
f 875//2 878//2 879//2 876//2
f 880//4 874//4 877//4 881//4
f 881//1 877//1 876//1 879//1
f 882//5 883//5 884//5 885//5
f 883//4 886//4 887//4 884//4
f 888//2 882//2 885//2 889//2
f 889//3 885//3 884//3 887//3
f 890//5 891//5 892//5 893//5
f 891//2 894//2 895//2 892//2
f 896//4 890//4 893//4 897//4
f 897//1 893//1 892//1 895//1
f 898//5 899//5 900//5 901//5
f 899//4 902//4 903//4 900//4
f 904//2 898//2 901//2 905//2
f 905//3 901//3 900//3 903//3
f 906//5 907//5 908//5 909//5
f 907//4 910//4 911//4 908//4
f 912//2 906//2 909//2 913//2
f 913//3 909//3 908//3 911//3
f 914//5 915//5 916//5 917//5
f 915//2 918//2 919//2 916//2
f 920//4 914//4 917//4 921//4
f 921//1 917//1 916//1 919//1
f 922//5 923//5 924//5 925//5
f 923//4 926//4 927//4 924//4
f 928//2 922//2 925//2 929//2
f 929//3 925//3 924//3 927//3
f 930//5 931//5 932//5 933//5
f 931//2 934//2 935//2 932//2
f 936//4 930//4 933//4 937//4
f 937//1 933//1 932//1 935//1
f 938//6 939//6 940//6
f 941//6 938//6 940//6
f 942//6 938//6 941//6
f 943//6 942//6 941//6
f 944//6 942//6 943//6
f 945//6 944//6 943//6
f 946//6 944//6 945//6
f 947//6 946//6 945//6
f 948//6 946//6 947//6
f 949//6 948//6 947//6
f 950//6 948//6 949//6
f 951//6 950//6 949//6
f 952//6 950//6 951//6
f 807//111 953//111 863//163
f 863//163 953//111 954//163
f 864//164 954//163 955//164
f 872//170 955//164 956//170
f 871//6 956//170 957//6
f 871//6 872//170 956//170
f 872//170 864//164 955//164
f 864//164 863//163 954//163
f 810//6 958//6 822//124
f 822//124 958//6 959//124
f 821//123 959//124 960//123
f 823//125 960//123 961//125
f 825//127 961//125 962//127
f 825//127 823//125 961//125
f 823//125 821//123 960//123
f 821//123 822//124 959//124
f 963//127 964//171 825//127
f 825//127 964//171 843//144
f 843//144 964//171 965//172
f 836//138 965//172 835//137
f 836//138 843//144 965//172
f 965//172 966//173 835//137
f 835//137 966//173 838//104
f 838//104 966//173 967//104
f 968//174 969//175 970//176
f 971//177 970//176 972//178
f 973//179 972//178 974//180
f 975//181 974//180 976//182 977//183
f 977//183 978//184 979//185 975//181
f 980//186 977//183 976//182 981//187
f 981//187 982//188 983//189 980//186
f 984//190 981//187 976//182 985//191
f 985//191 969//175 986//192 984//190
f 972//178 985//191 976//182 974//180
f 970//176 969//175 985//191 972//178
f 971//177 968//174 970//176
f 968//174 987//193 969//175
f 969//175 987//193 986//192
f 986//192 987//193 988//194
f 989//195 988//194 990//196
f 991//197 989//195 990//196
f 991//197 982//188 989//195
f 991//197 983//189 982//188
f 991//197 992//198 983//189
f 983//189 992//198 993//199
f 994//200 993//199 956//170
f 955//164 994//200 956//170
f 955//164 978//184 994//200
f 955//164 979//185 978//184
f 955//164 954//163 979//185
f 979//185 954//163 995//201
f 996//202 995//201 953//111
f 973//179 953//111 971//177
f 972//178 973//179 971//177
f 987//193 997//203 988//194
f 988//194 997//203 990//196
f 992//198 957//6 993//199
f 993//199 957//6 956//170
f 954//163 953//111 995//201
f 953//111 973//179 996//202
f 996//202 973//179 974//180 975//181
f 995//201 996//202 975//181 979//185
f 994//200 978//184 977//183 980//186
f 993//199 994//200 980//186 983//189
f 989//195 984//190 986//192 988//194
f 982//188 981//187 984//190 989//195
f 959//124 958//6 998//204
f 999//205 998//204 1000//206 1001//207
f 1001//207 1002//208 1003//209 999//205
f 1004//210 1001//207 1000//206 1005//211
f 1005//211 1006//212 1007//213 1004//210
f 1008//197 1005//211 1000//206
f 1009//198 1000//206 998//204
f 958//6 1009//198 998//204
f 1009//198 1008//197 1000//206
f 1005//211 1008//197 1006//212
f 1006//212 1008//197 1010//196
f 1011//214 1010//196 1012//203
f 1013//215 1011//214 1012//203
f 1013//215 1014//216 1011//214
f 1013//215 1015//217 1014//216
f 1013//215 1016//218 1015//217
f 1015//217 1016//218 1017//219
f 1018//220 1017//219 1019//221
f 1020//222 1019//221 962//127
f 1021//223 962//127 1022//224
f 1023//225 1022//224 961//125
f 960//123 1023//225 961//125
f 960//123 1003//209 1023//225
f 960//123 999//205 1003//209
f 960//123 959//124 999//205
f 999//205 959//124 998//204
f 1016//218 1019//221 1017//219
f 962//127 961//125 1022//224
f 1023//225 1003//209 1002//208 1024//226
f 1024//226 1021//223 1022//224 1023//225
f 1025//227 1024//226 1002//208 1026//228
f 1026//228 1027//229 1018//220 1025//227
f 1004//210 1026//228 1002//208 1001//207
f 1007//213 1027//229 1026//228 1004//210
f 1014//216 1007//213 1006//212 1011//214
f 1015//217 1027//229 1007//213 1014//216
f 1017//219 1018//220 1027//229 1015//217
f 962//127 1021//223 1020//222
f 1020//222 1021//223 1024//226 1025//227
f 1020//222 1018//220 1019//221
f 1020//222 1025//227 1018//220
f 1011//214 1006//212 1010//196
f 1028//111 1029//230 953//111
f 953//111 1029//230 971//177
f 971//177 1029//230 1030//231
f 968//174 1030//231 987//193
f 968//174 971//177 1030//231
f 1030//231 1031//232 987//193
f 987//193 1031//232 997//203
f 997//203 1031//232 1032//203
f 958//6 957//6 1009//198
f 1009//198 957//6 992//198
f 1008//197 992//198 991//197
f 1010//196 991//197 990//196
f 1012//203 990//196 997//203
f 1012//203 1010//196 990//196
f 1010//196 1008//197 991//197
f 1008//197 1009//198 992//198
f 1033//203 1034//233 1012//203
f 1012//203 1034//233 1013//215
f 1013//215 1034//233 1035//234
f 1016//218 1035//234 1019//221
f 1016//218 1013//215 1035//234
f 1035//234 1036//235 1019//221
f 1019//221 1036//235 962//127
f 962//127 1036//235 1037//127
f 1038//6 810//6 871//6
f 1039//6 1038//6 871//6
f 1040//6 810//6 1038//6
f 1041//6 1039//6 871//6
f 1042//6 810//6 1040//6
f 1043//6 1041//6 871//6
f 1044//6 810//6 1042//6
f 1045//6 1043//6 871//6
f 1046//6 810//6 1044//6
f 1047//6 1045//6 871//6
f 1048//6 810//6 1046//6
f 1049//6 1047//6 871//6
f 1050//6 1049//6 871//6
f 957//6 1051//6 1052//6
f 957//6 1052//6 1050//6
f 957//6 1050//6 871//6
f 958//6 1051//6 957//6
f 958//6 1048//6 1051//6
f 958//6 810//6 1048//6
f 953//111 807//111 808//111 1028//111
f 1037//127 963//127 825//127 962//127
f 1029//5 1028//5 808//5
f 806//5 1029//5 808//5
f 803//5 1029//5 806//5
f 1030//5 1029//5 803//5
f 800//5 1030//5 803//5
f 1031//5 1030//5 800//5
f 1032//5 1031//5 800//5
f 799//5 1032//5 800//5
f 903//5 1032//5 799//5
f 897//5 903//5 799//5
f 902//5 1032//5 903//5
f 896//5 897//5 799//5
f 895//5 903//5 897//5
f 905//5 903//5 895//5
f 937//5 904//5 905//5
f 937//5 905//5 894//5
f 886//5 904//5 937//5
f 936//5 937//5 894//5
f 889//5 887//5 937//5
f 935//5 889//5 937//5
f 921//5 888//5 935//5
f 921//5 935//5 934//5
f 927//5 888//5 921//5
f 926//5 888//5 927//5
f 920//5 921//5 934//5
f 929//5 927//5 921//5
f 919//5 929//5 921//5
f 910//5 928//5 919//5
f 910//5 919//5 918//5
f 911//5 910//5 918//5
f 880//5 911//5 918//5
f 913//5 911//5 881//5
f 879//5 913//5 881//5
f 1033//5 879//5 878//5
f 1033//5 912//5 879//5
f 967//5 1033//5 878//5
f 1034//5 1033//5 967//5
f 966//5 1034//5 967//5
f 1035//5 1034//5 966//5
f 965//5 1035//5 966//5
f 1036//5 1035//5 965//5
f 964//5 1036//5 965//5
f 963//5 1036//5 964//5
f 1037//5 1036//5 963//5
f 890//104 799//104 801//104
f 896//104 799//104 890//104
f 891//104 890//104 801//104
f 930//104 894//104 891//104
f 930//104 891//104 801//104
f 936//104 894//104 930//104
f 931//104 930//104 801//104
f 920//104 931//104 801//104
f 920//104 934//104 931//104
f 914//104 920//104 801//104
f 915//104 914//104 801//104
f 880//104 915//104 801//104
f 880//104 918//104 915//104
f 874//104 880//104 801//104
f 875//104 874//104 801//104
f 838//104 878//104 875//104
f 838//104 875//104 801//104
f 967//104 878//104 838//104
f 922//203 1012//203 997//203
f 883//203 922//203 997//203
f 898//203 883//203 997//203
f 907//203 1012//203 922//203
f 906//203 1012//203 907//203
f 899//203 898//203 997//203
f 1033//203 1012//203 906//203
f 1032//203 899//203 997//203
f 902//203 899//203 1032//203
f 912//203 1033//203 906//203
f 910//203 907//203 922//203
f 904//203 883//203 898//203
f 886//203 883//203 904//203
f 928//203 910//203 922//203
f 926//203 923//203 882//203
f 888//203 926//203 882//203
f 1046//236 1044//237 944//237
f 946//238 1046//236 944//237
f 946//238 948//239 1046//236
f 1046//236 948//239 1048//240
f 1048//240 948//239 950//241
f 1051//13 950//241 952//242
f 1052//243 952//242 951//244
f 1050//244 951//244 949//245
f 1049//246 949//245 947//247
f 1047//248 947//247 945//249
f 1045//4 945//249 943//250
f 1043//250 943//250 941//251
f 1041//252 941//251 940//253
f 1039//253 940//253 939//254
f 1038//255 939//254 938//22
f 1040//256 938//22 942//257
f 1042//258 942//257 944//237
f 1044//237 1042//258 944//237
f 1045//4 1047//248 945//249
f 1047//248 1049//246 947//247
f 1049//246 1050//244 949//245
f 1050//244 1052//243 951//244
f 1052//243 1051//13 952//242
f 1051//13 1048//240 950//241
f 1042//258 1040//256 942//257
f 1040//256 1038//255 938//22
f 1038//255 1039//253 939//254
f 1039//253 1041//252 940//253
f 1041//252 1043//250 941//251
f 1043//250 1045//4 943//250
f 1053//5 1054//5 1055//5 1056//5
f 1057//6 1058//6 1059//6 1060//6
f 1059//1 1058//1 1054//1 1053//1
f 1060//2 1059//2 1053//2 1056//2
f 1057//3 1060//3 1056//3 1055//3
f 1058//4 1057//4 1055//4 1054//4
f 1061//5 1062//5 1063//5 1064//5
f 1065//6 1066//6 1067//6 1068//6
f 1067//1 1066//1 1062//1 1061//1
f 1068//2 1067//2 1061//2 1064//2
f 1065//3 1068//3 1064//3 1063//3
f 1066//4 1065//4 1063//4 1062//4
f 1069//5 1070//5 1071//5 1072//5
f 1073//6 1074//6 1075//6 1076//6
f 1075//4 1074//4 1070//4 1069//4
f 1076//1 1075//1 1069//1 1072//1
f 1073//2 1076//2 1072//2 1071//2
f 1074//3 1073//3 1071//3 1070//3
f 1077//1 1078//1 1079//1 1080//1
f 1078//4 1081//4 1082//4 1079//4
f 1081//3 1083//3 1084//3 1082//3
f 1083//2 1077//2 1080//2 1084//2
f 1078//6 1077//6 1083//6 1081//6
f 1084//5 1080//5 1079//5 1082//5
f 1085//1 1086//1 1087//1 1088//1
f 1086//4 1089//4 1090//4 1087//4
f 1089//3 1091//3 1092//3 1090//3
f 1091//2 1085//2 1088//2 1092//2
f 1086//6 1085//6 1091//6 1089//6
f 1092//5 1088//5 1087//5 1090//5
f 1093//1 1094//1 1095//1 1096//1
f 1094//4 1097//4 1098//4 1095//4
f 1097//3 1099//3 1100//3 1098//3
f 1099//2 1093//2 1096//2 1100//2
f 1094//6 1093//6 1099//6 1097//6
f 1100//5 1096//5 1095//5 1098//5
f 1101//6 1102//6 1103//6 1104//6
f 1105//5 1106//5 1107//5 1108//5
f 1102//2 1101//2 1107//2 1106//2
f 1101//1 1104//1 1108//1 1107//1
f 1104//4 1103//4 1105//4 1108//4
f 1103//3 1102//3 1106//3 1105//3
f 1109//1 1110//1 1111//1 1112//1
f 1110//4 1113//4 1114//4 1111//4
f 1113//3 1115//3 1116//3 1114//3
f 1115//2 1109//2 1112//2 1116//2
f 1110//6 1109//6 1115//6 1113//6
f 1116//5 1112//5 1111//5 1114//5
f 1117//6 1118//6 1119//6 1120//6
f 1121//5 1122//5 1123//5 1124//5
f 1118//1 1117//1 1123//1 1122//1
f 1117//4 1120//4 1124//4 1123//4
f 1120//3 1119//3 1121//3 1124//3
f 1119//2 1118//2 1122//2 1121//2
f 1125//6 1126//6 1127//6 1128//6
f 1129//5 1130//5 1131//5 1132//5
f 1126//1 1125//1 1131//1 1130//1
f 1125//4 1128//4 1132//4 1131//4
f 1128//3 1127//3 1129//3 1132//3
f 1127//2 1126//2 1130//2 1129//2
f 1133//6 1134//6 1135//6 1136//6
f 1137//5 1138//5 1139//5 1140//5
f 1134//2 1133//2 1139//2 1138//2
f 1133//1 1136//1 1140//1 1139//1
f 1136//4 1135//4 1137//4 1140//4
f 1135//3 1134//3 1138//3 1137//3
f 1141//6 1142//6 1143//6 1144//6
f 1145//5 1146//5 1147//5 1148//5
f 1142//2 1141//2 1147//2 1146//2
f 1141//1 1144//1 1148//1 1147//1
f 1144//4 1143//4 1145//4 1148//4
f 1143//3 1142//3 1146//3 1145//3
f 1149//6 1150//6 1151//6 1152//6
f 1153//5 1154//5 1155//5 1156//5
f 1150//2 1149//2 1155//2 1154//2
f 1149//1 1152//1 1156//1 1155//1
f 1152//4 1151//4 1153//4 1156//4
f 1151//3 1150//3 1154//3 1153//3
f 1157//6 1158//6 1159//6 1160//6
f 1161//5 1162//5 1163//5 1164//5
f 1158//2 1157//2 1163//2 1162//2
f 1157//1 1160//1 1164//1 1163//1
f 1160//4 1159//4 1161//4 1164//4
f 1159//3 1158//3 1162//3 1161//3
usemtl TSS_EM_3_0cMtl8
f 1165//6 1166//6 1167//6 1168//6
f 1169//5 1170//5 1171//5 1172//5
f 1166//1 1165//1 1171//1 1170//1
f 1165//4 1168//4 1172//4 1171//4
f 1168//3 1167//3 1169//3 1172//3
f 1167//2 1166//2 1170//2 1169//2
f 1173//6 1174//6 1175//6 1176//6
f 1177//5 1178//5 1179//5 1180//5
f 1174//1 1173//1 1179//1 1178//1
f 1173//4 1176//4 1180//4 1179//4
f 1176//3 1175//3 1177//3 1180//3
f 1175//2 1174//2 1178//2 1177//2
f 1181//6 1182//6 1183//6 1184//6
f 1185//5 1186//5 1187//5 1188//5
f 1182//1 1181//1 1187//1 1186//1
f 1181//4 1184//4 1188//4 1187//4
f 1184//3 1183//3 1185//3 1188//3
f 1183//2 1182//2 1186//2 1185//2
f 1189//6 1190//6 1191//6 1192//6
f 1193//5 1194//5 1195//5 1196//5
f 1190//1 1189//1 1195//1 1194//1
f 1189//4 1192//4 1196//4 1195//4
f 1192//3 1191//3 1193//3 1196//3
f 1191//2 1190//2 1194//2 1193//2
f 1197//6 1198//6 1199//6 1200//6
f 1201//5 1202//5 1203//5 1204//5
f 1198//1 1197//1 1203//1 1202//1
f 1197//4 1200//4 1204//4 1203//4
f 1200//3 1199//3 1201//3 1204//3
f 1199//2 1198//2 1202//2 1201//2
f 1205//6 1206//6 1207//6 1208//6
f 1209//5 1210//5 1211//5 1212//5
f 1206//2 1205//2 1211//2 1210//2
f 1205//1 1208//1 1212//1 1211//1
f 1208//4 1207//4 1209//4 1212//4
f 1207//3 1206//3 1210//3 1209//3
f 1213//6 1214//6 1215//6 1216//6
f 1217//5 1218//5 1219//5 1220//5
f 1214//2 1213//2 1219//2 1218//2
f 1213//1 1216//1 1220//1 1219//1
f 1216//4 1215//4 1217//4 1220//4
f 1215//3 1214//3 1218//3 1217//3
f 1221//6 1222//6 1223//6 1224//6
f 1225//5 1226//5 1227//5 1228//5
f 1222//2 1221//2 1227//2 1226//2
f 1221//1 1224//1 1228//1 1227//1
f 1224//4 1223//4 1225//4 1228//4
f 1223//3 1222//3 1226//3 1225//3
f 1229//6 1230//6 1231//6 1232//6
f 1233//5 1234//5 1235//5 1236//5
f 1230//2 1229//2 1235//2 1234//2
f 1229//1 1232//1 1236//1 1235//1
f 1232//4 1231//4 1233//4 1236//4
f 1231//3 1230//3 1234//3 1233//3
f 1237//6 1238//6 1239//6 1240//6
f 1241//5 1242//5 1243//5 1244//5
f 1238//2 1237//2 1243//2 1242//2
f 1237//1 1240//1 1244//1 1243//1
f 1240//4 1239//4 1241//4 1244//4
f 1239//3 1238//3 1242//3 1241//3
f 1245//6 1246//6 1247//6 1248//6
f 1249//5 1250//5 1251//5 1252//5
f 1246//2 1245//2 1251//2 1250//2
f 1245//1 1248//1 1252//1 1251//1
f 1248//4 1247//4 1249//4 1252//4
f 1247//3 1246//3 1250//3 1249//3
f 1253//6 1254//6 1255//6 1256//6
f 1257//5 1258//5 1259//5 1260//5
f 1254//2 1253//2 1259//2 1258//2
f 1253//1 1256//1 1260//1 1259//1
f 1256//4 1255//4 1257//4 1260//4
f 1255//3 1254//3 1258//3 1257//3
f 1261//6 1262//6 1263//6 1264//6
f 1265//5 1266//5 1267//5 1268//5
f 1262//2 1261//2 1267//2 1266//2
f 1261//1 1264//1 1268//1 1267//1
f 1264//4 1263//4 1265//4 1268//4
f 1263//3 1262//3 1266//3 1265//3
f 1269//6 1270//6 1271//6 1272//6
f 1273//5 1274//5 1275//5 1276//5
f 1270//4 1269//4 1275//4 1274//4
f 1269//3 1272//3 1276//3 1275//3
f 1272//2 1271//2 1273//2 1276//2
f 1271//1 1270//1 1274//1 1273//1
f 1277//6 1278//6 1279//6 1280//6
f 1281//5 1282//5 1283//5 1284//5
f 1278//4 1277//4 1283//4 1282//4
f 1277//3 1280//3 1284//3 1283//3
f 1280//2 1279//2 1281//2 1284//2
f 1279//1 1278//1 1282//1 1281//1
f 1285//6 1286//6 1287//6 1288//6
f 1289//5 1290//5 1291//5 1292//5
f 1286//4 1285//4 1291//4 1290//4
f 1285//3 1288//3 1292//3 1291//3
f 1288//2 1287//2 1289//2 1292//2
f 1287//1 1286//1 1290//1 1289//1
f 1293//6 1294//6 1295//6 1296//6
f 1297//5 1298//5 1299//5 1300//5
f 1294//4 1293//4 1299//4 1298//4
f 1293//3 1296//3 1300//3 1299//3
f 1296//2 1295//2 1297//2 1300//2
f 1295//1 1294//1 1298//1 1297//1
